<?xml version="1.0" standalone="no"?>
<!DOCTYPE svg PUBLIC "-//W3C//DTD SVG 20010904//EN"
 "http://www.w3.org/TR/2001/REC-SVG-20010904/DTD/svg10.dtd">
<svg version="1.0" xmlns="http://www.w3.org/2000/svg"
 width="3456.000000pt" height="3916.000000pt" viewBox="0 0 3456.000000 3916.000000"
 preserveAspectRatio="xMidYMid meet">

<g transform="translate(0.000000,3916.000000) scale(0.100000,-0.100000)"
fill="#000000" stroke="none">
<path d="M16665 39154 c-33 -2 -159 -8 -280 -14 -2702 -131 -5388 -926 -7750
-2295 -2352 -1362 -4371 -3281 -5851 -5562 -1544 -2379 -2471 -5078 -2714
-7898 -47 -555 -54 -747 -54 -1500 -1 -754 6 -944 55 -1500 220 -2553 997
-4999 2289 -7210 1020 -1746 2377 -3340 3932 -4620 87 -71 158 -133 158 -137
0 -13 -152 -308 -162 -314 -4 -3 -8 -13 -8 -23 0 -10 -7 -24 -15 -31 -8 -7
-15 -19 -15 -27 0 -8 -9 -27 -19 -42 -11 -15 -60 -105 -109 -201 -158 -310
-299 -583 -333 -648 -28 -53 -31 -64 -19 -72 9 -6 532 -10 1333 -10 l1318 0
187 -109 c463 -268 982 -540 1400 -731 39 -18 72 -36 72 -39 0 -4 -53 -20
-117 -35 -212 -52 -751 -195 -1083 -288 -285 -79 -329 -89 -360 -80 -19 5
-136 52 -260 105 -407 171 -942 362 -1320 470 -1303 373 -2362 431 -3365 182
-1336 -330 -2364 -1160 -2980 -2406 -41 -83 -73 -155 -70 -159 3 -4 -11 -37
-31 -72 -179 -316 -316 -720 -374 -1103 -27 -181 -37 -487 -21 -661 79 -842
512 -1499 1216 -1845 383 -188 770 -270 1275 -270 310 0 575 27 886 90 l141
28 579 290 c1521 763 2798 1325 4164 1835 2524 942 4860 1485 7070 1642 497
36 657 41 1320 41 665 0 819 -5 1305 -41 1579 -116 3127 -450 4776 -1029 695
-245 1198 -443 2459 -968 1544 -643 2203 -884 2895 -1060 639 -163 1123 -229
1670 -229 465 -1 811 40 1245 147 1012 250 1994 818 3058 1768 l122 110 35
111 c80 251 142 548 170 814 17 157 19 492 5 632 -53 505 -224 955 -517 1358
l-75 103 21 23 22 23 -138 131 c-345 326 -641 539 -1023 734 -1045 536 -2349
600 -3668 182 -784 -248 -1642 -737 -2487 -1416 -72 -57 -136 -107 -143 -112
-7 -4 -124 37 -290 102 -634 251 -1233 464 -1817 646 -99 31 -187 59 -195 62
-9 3 13 17 55 36 565 247 1210 576 1761 899 l151 89 1314 0 c768 0 1320 4
1328 9 12 8 3 32 -49 133 -68 131 -179 347 -306 596 -43 84 -88 167 -101 185
-13 17 -23 38 -23 48 0 9 -7 22 -15 29 -8 7 -15 21 -15 31 0 10 -4 20 -8 23
-5 3 -44 74 -86 157 -64 125 -75 154 -64 164 7 7 96 81 197 165 688 571 1377
1241 1967 1916 2429 2775 3897 6217 4213 9879 49 564 56 745 56 1505 -1 759
-6 913 -55 1490 -212 2482 -957 4875 -2195 7050 -931 1635 -2137 3122 -3556
4381 -2424 2153 -5415 3586 -8584 4113 -638 106 -1192 169 -1875 212 -225 15
-1449 28 -1625 18z m1400 -284 c1179 -58 2275 -219 3380 -497 3588 -902 6795
-2967 9118 -5870 1543 -1928 2633 -4132 3226 -6521 559 -2249 649 -4644 261
-6937 -472 -2794 -1616 -5381 -3374 -7635 -671 -861 -1476 -1703 -2318 -2425
-229 -197 -362 -305 -375 -305 -5 0 -25 30 -43 67 -19 38 -43 79 -52 92 -10
13 -18 32 -18 41 0 10 -7 23 -15 30 -8 7 -15 20 -15 30 0 9 -9 25 -20 35 -11
10 -20 26 -20 35 0 10 -7 23 -15 30 -8 7 -15 18 -15 24 0 6 -6 22 -13 36 -83
155 -131 248 -227 435 -144 280 -188 366 -200 388 -19 33 -29 52 -95 182 -36
72 -113 220 -170 330 -57 110 -125 243 -152 295 -26 52 -53 101 -60 108 -7 7
-13 21 -13 31 0 10 -9 26 -20 36 -11 10 -20 23 -20 28 0 11 -56 125 -121 247
-22 41 -106 203 -186 360 -80 157 -157 303 -169 325 -13 22 -26 47 -30 55 -3
8 -10 22 -15 30 -5 8 -14 26 -20 40 -6 14 -15 32 -19 40 -11 20 -120 230 -182
350 -27 52 -53 101 -59 108 -8 9 7 28 58 75 883 811 1552 1586 2168 2512 1432
2157 2184 4650 2185 7245 1 2935 -956 5735 -2752 8052 -1280 1652 -2968 2996
-4863 3873 -2092 968 -4406 1366 -6715 1154 -1969 -180 -3849 -794 -5540
-1809 -2181 -1309 -3943 -3229 -5057 -5510 -1069 -2190 -1503 -4635 -1257
-7085 295 -2950 1603 -5737 3684 -7849 225 -229 441 -437 598 -577 l62 -56
-99 -194 c-55 -107 -111 -214 -125 -239 -14 -25 -28 -52 -32 -60 -6 -16 -13
-31 -32 -65 -6 -11 -13 -27 -16 -35 -4 -8 -17 -33 -30 -55 -13 -22 -62 -116
-110 -210 -48 -93 -131 -255 -185 -360 -147 -281 -181 -350 -181 -361 0 -6 -9
-19 -20 -29 -11 -10 -20 -26 -20 -36 0 -10 -6 -24 -13 -31 -7 -7 -34 -56 -60
-108 -27 -52 -95 -185 -152 -295 -57 -110 -134 -258 -170 -330 -66 -130 -76
-149 -95 -182 -11 -21 -50 -96 -195 -378 -100 -195 -186 -361 -249 -479 -14
-27 -26 -55 -26 -61 0 -7 -7 -18 -14 -25 -8 -6 -24 -33 -36 -58 -12 -26 -27
-58 -35 -72 -7 -14 -30 -58 -50 -97 -21 -40 -41 -73 -44 -73 -8 0 -306 248
-456 379 -1125 982 -2105 2091 -2937 3321 -1540 2276 -2502 4894 -2802 7630
-146 1324 -136 2691 29 4005 275 2183 966 4281 2041 6190 1072 1906 2501 3589
4214 4960 2876 2303 6371 3591 10080 3715 299 10 1015 4 1315 -10z m-100
-3710 c814 -48 1485 -143 2240 -317 1707 -393 3355 -1161 4770 -2221 871 -653
1672 -1427 2333 -2255 812 -1016 1444 -2098 1912 -3272 131 -327 291 -779 279
-788 -7 -7 -920 -97 -978 -97 -29 0 -315 52 -635 115 -319 63 -795 153 -1056
200 -261 47 -496 93 -522 101 -46 15 -776 416 -1061 582 -94 55 -209 137 -365
261 l-227 179 -215 247 c-118 136 -218 251 -221 256 -3 5 -29 1 -58 -9 l-54
-18 31 -35 c16 -19 96 -90 176 -159 96 -82 146 -132 146 -145 0 -11 7 -101 14
-200 11 -144 12 -183 2 -195 -170 -203 -337 -386 -468 -510 -141 -133 -180
-164 -274 -216 -581 -327 -658 -364 -753 -364 -24 0 -42 -3 -38 -6 7 -8 -40
15 1162 -541 506 -234 1156 -535 1445 -668 289 -133 854 -394 1255 -580 402
-186 1061 -490 1465 -677 404 -187 820 -379 924 -427 103 -47 190 -91 193 -97
5 -13 -213 -488 -226 -492 -5 -2 -692 313 -1527 699 -836 386 -1998 923 -2584
1194 -586 271 -1508 697 -2050 947 -542 251 -1493 691 -2115 978 -621 287
-1577 729 -2123 981 -546 253 -1008 467 -1027 477 l-33 17 56 118 c33 69 52
121 46 126 -5 5 -229 106 -499 226 -269 119 -508 227 -531 240 -22 13 -79 55
-125 94 l-84 70 -6 -113 c-51 -900 -755 -1591 -1654 -1623 -575 -20 -1105 232
-1449 690 -32 42 -61 77 -63 77 -4 0 -169 -96 -181 -106 -2 -1 48 -87 111
-191 71 -116 122 -213 135 -253 13 -41 32 -173 52 -351 43 -391 51 -357 -164
-747 -158 -288 -164 -297 -342 -520 -100 -125 -194 -239 -210 -254 -34 -31
-451 -331 -605 -436 l-107 -72 -613 -938 c-337 -515 -782 -1196 -989 -1512
-207 -316 -650 -993 -985 -1505 -334 -511 -803 -1227 -1040 -1590 -887 -1355
-1344 -2054 -1424 -2178 -52 -80 -87 -124 -94 -120 -7 4 -103 67 -215 140
-111 73 -211 137 -222 143 -19 10 -17 15 34 93 75 115 3078 4705 4231 6467
257 393 477 730 488 748 l19 32 -74 0 c-40 0 -178 -5 -307 -10 l-235 -10 -435
75 c-240 41 -458 82 -484 91 -48 16 -49 16 -75 -8 -15 -14 -306 -267 -647
-564 -341 -296 -721 -626 -845 -734 -124 -108 -817 -711 -1540 -1340 -723
-629 -1384 -1204 -1469 -1278 -126 -110 -156 -131 -166 -120 -7 7 -88 100
-180 207 -121 138 -166 197 -159 206 5 7 185 165 399 352 359 312 921 800
2785 2422 382 333 732 637 776 675 45 39 79 72 75 74 -4 1 -146 -20 -316 -48
-171 -28 -578 -93 -905 -145 l-595 -94 -575 -30 c-504 -27 -644 -31 -1123 -31
-456 0 -547 2 -547 14 0 24 70 374 116 581 563 2528 1904 4851 3824 6624 1838
1697 4120 2819 6575 3230 586 99 1111 150 1790 175 157 6 853 -4 1030 -14z
m1655 -9320 c2239 -1933 5422 -4682 5645 -4875 77 -67 739 -638 1470 -1269
732 -632 1343 -1161 1358 -1176 l29 -27 -177 -204 c-97 -112 -181 -204 -185
-204 -5 0 -428 363 -942 806 -513 443 -2062 1782 -3443 2974 -1380 1192 -3341
2886 -4357 3763 l-1846 1595 180 209 c157 181 183 207 196 196 9 -7 941 -812
2072 -1788z m-2518 573 c245 -373 742 -1128 1103 -1678 362 -550 699 -1063
750 -1140 50 -77 590 -898 1200 -1825 609 -927 1245 -1893 1411 -2146 167
-254 306 -469 310 -477 4 -12 -19 -32 -90 -77 l-96 -62 53 -46 c28 -25 117
-111 197 -191 269 -271 449 -546 545 -835 59 -176 70 -250 70 -461 0 -214 -8
-271 -65 -446 -179 -551 -687 -1057 -1489 -1483 -232 -123 -266 -136 -363
-136 -46 0 -128 -7 -183 -15 -55 -8 -175 -15 -267 -15 -157 0 -168 1 -178 20
-9 17 -21 20 -77 20 -55 0 -71 4 -90 22 -21 20 -27 21 -55 10 -28 -10 -34 -9
-60 13 -24 20 -41 25 -84 25 -56 0 -115 19 -146 47 -15 14 -26 14 -75 4 -31
-6 -103 -11 -159 -11 -57 0 -126 -5 -154 -11 -45 -10 -57 -8 -100 10 -61 26
-82 26 -98 1 -12 -19 -23 -20 -300 -20 -373 0 -523 -19 -675 -87 l-58 -26 -36
43 -37 42 -109 -4 -109 -5 -10 29 c-10 27 -12 28 -77 28 -58 0 -70 -3 -88 -23
-19 -22 -30 -24 -154 -30 -132 -6 -272 -31 -356 -63 -38 -15 -47 -15 -110 1
-58 15 -96 17 -263 11 -187 -6 -196 -8 -218 -30 -23 -23 -25 -23 -73 -9 -65
19 -138 7 -280 -46 -137 -52 -188 -59 -484 -65 -137 -3 -275 -10 -305 -15 -30
-5 -86 -11 -125 -14 l-70 -4 -40 49 c-22 26 -59 57 -82 69 -24 11 -43 27 -43
34 0 7 -18 36 -40 64 l-40 50 32 46 c19 26 38 43 45 40 47 -19 46 -19 32 4
-10 14 -24 21 -46 21 -26 0 -41 -11 -91 -66 l-60 -66 40 -65 c22 -36 37 -71
34 -79 -10 -25 -90 -54 -170 -61 -73 -6 -77 -5 -96 20 -17 22 -25 24 -62 20
-24 -3 -69 -14 -100 -23 l-57 -18 -21 23 c-21 22 -25 23 -64 11 -40 -12 -44
-11 -70 11 -15 12 -38 23 -52 23 l-26 0 30 -37 c17 -21 42 -49 56 -62 14 -14
26 -29 26 -34 0 -16 -68 0 -137 32 -43 21 -73 29 -89 25 -37 -9 -94 5 -118 29
-20 21 -28 22 -144 19 l-123 -4 6 -40 7 -40 -88 6 c-114 7 -107 7 -186 0 -61
-6 -67 -8 -73 -33 -4 -14 -12 -29 -18 -33 -7 -4 -114 -8 -239 -8 l-227 0 -83
31 c-144 52 -431 178 -605 263 -755 372 -1307 845 -1547 1324 -127 253 -171
428 -170 687 1 189 17 290 75 464 308 926 1527 1775 3375 2351 221 69 227 70
334 70 l108 0 6 113 c4 61 38 920 76 1907 113 2900 152 3895 153 3896 1 1 126
-3 277 -10 l275 -11 -3 -75 c-4 -107 -50 -1291 -142 -3653 -44 -1126 -80
-2074 -80 -2107 l0 -60 1230 0 c677 0 1230 3 1230 7 0 4 -31 104 -69 223 -38
118 -166 517 -284 885 -119 369 -310 965 -426 1325 -115 360 -404 1260 -641
2000 -237 740 -443 1380 -457 1423 -14 43 -23 80 -22 82 8 7 520 167 523 164
2 -2 59 -175 126 -384 67 -209 351 -1095 632 -1970 280 -874 570 -1779 645
-2010 74 -231 208 -649 298 -930 90 -280 185 -579 212 -662 l48 -153 553 0
554 0 146 -45 c367 -111 789 -264 1132 -410 179 -77 586 -275 738 -360 45 -25
82 -44 82 -41 0 4 -133 207 -938 1431 -196 297 -415 630 -487 740 -126 192
-974 1481 -2075 3155 -1077 1637 -1279 1945 -1282 1953 -3 7 438 306 453 307
3 0 206 -305 451 -677z m-3006 100 c217 -103 245 -119 241 -137 -3 -12 -330
-700 -727 -1531 -397 -830 -811 -1697 -920 -1925 -109 -228 -536 -1124 -950
-1990 -660 -1381 -901 -1887 -1118 -2340 -30 -63 -78 -166 -108 -227 l-53
-113 -43 19 c-24 10 -133 62 -243 115 -110 53 -204 97 -209 99 -5 2 130 293
299 647 169 355 453 949 630 1320 177 371 582 1220 900 1885 318 666 757 1586
977 2045 219 459 550 1153 736 1542 185 389 338 708 340 708 1 0 113 -53 248
-117z m3539 -11167 c18 -13 18 -27 7 -382 -7 -203 -14 -675 -18 -1049 -3 -374
-10 -788 -15 -920 -5 -132 -12 -523 -15 -870 -3 -346 -10 -799 -15 -1005 -5
-206 -13 -737 -18 -1180 -5 -443 -14 -987 -20 -1210 -6 -223 -13 -489 -16
-592 -2 -103 -9 -196 -15 -205 -5 -10 -39 -167 -75 -348 -81 -411 -127 -803
-127 -1095 -1 -102 4 -206 9 -232 l10 -48 -29 18 c-91 52 -217 181 -306 313
-164 243 -291 729 -292 1117 -1 165 200 7674 205 7690 7 19 704 18 730 -2z
m5539 -76 c14 -5 26 -15 26 -22 0 -6 15 -44 34 -82 57 -118 136 -287 136 -291
0 -3 25 -57 56 -122 91 -193 132 -281 199 -428 22 -48 94 -204 125 -270 16
-33 47 -100 70 -150 23 -49 54 -117 70 -150 15 -33 39 -85 53 -115 23 -52 41
-90 131 -282 48 -105 102 -221 133 -288 14 -30 47 -101 74 -157 27 -57 49
-105 49 -107 0 -4 22 -50 140 -301 20 -44 50 -107 64 -140 29 -62 44 -96 119
-255 24 -52 53 -115 65 -140 11 -25 38 -83 60 -130 22 -47 52 -112 67 -145 15
-33 48 -103 72 -155 24 -52 51 -108 58 -125 8 -16 32 -68 53 -115 22 -47 54
-116 72 -155 17 -38 44 -97 60 -130 15 -33 47 -100 70 -150 23 -49 54 -117 70
-150 38 -83 98 -212 120 -260 18 -39 66 -143 130 -280 18 -38 48 -104 67 -145
19 -41 47 -102 63 -135 15 -33 43 -91 60 -130 18 -38 49 -106 70 -150 20 -44
49 -105 63 -135 14 -30 43 -93 65 -140 22 -47 54 -116 72 -155 18 -38 41 -88
51 -109 21 -44 25 -86 8 -86 -7 0 -28 4 -48 10 -20 5 -79 19 -131 30 -52 12
-113 26 -135 32 -22 6 -60 14 -85 18 -25 4 -83 15 -130 24 -47 9 -116 23 -155
30 -117 23 -240 43 -470 76 -44 6 -120 17 -170 25 -204 31 -667 75 -1065 101
-605 39 -1654 24 -2155 -31 -71 -8 -179 -19 -240 -25 -152 -15 -328 -37 -400
-49 -33 -5 -123 -19 -200 -31 -77 -12 -169 -27 -205 -35 -36 -7 -92 -19 -125
-25 -153 -31 -193 -39 -230 -49 -22 -5 -62 -14 -90 -20 -27 -7 -76 -18 -107
-26 -32 -8 -84 -21 -116 -29 -32 -7 -76 -19 -98 -26 -92 -30 -123 -39 -194
-60 -76 -23 -99 -31 -202 -69 -188 -69 -201 -74 -279 -110 -25 -12 -49 -21
-53 -21 -30 0 -403 -199 -536 -285 -195 -127 -425 -334 -537 -482 -40 -53 -64
-76 -71 -68 -4 4 -8 1625 -10 3603 l-2 3597 782 1 c431 1 869 6 973 12 105 6
280 16 390 22 110 5 295 17 410 25 116 8 266 17 335 20 69 3 170 10 225 15 55
6 186 14 290 20 105 5 255 14 335 19 535 37 1546 63 1604 41z m641 -23 c39 -8
84 -22 100 -32 17 -11 89 -78 160 -150 72 -71 146 -138 165 -147 79 -38 127
-56 165 -62 60 -10 80 -31 138 -146 61 -118 186 -361 287 -555 153 -295 237
-457 303 -585 124 -242 181 -352 279 -540 298 -576 352 -680 456 -880 49 -96
113 -220 142 -275 29 -55 90 -172 135 -260 181 -351 256 -496 325 -630 40 -77
105 -202 144 -278 88 -170 155 -299 281 -542 121 -234 228 -440 292 -565 27
-52 94 -180 148 -285 98 -189 141 -272 279 -540 40 -77 110 -212 156 -300 45
-88 121 -234 168 -325 91 -177 170 -329 233 -450 21 -41 39 -83 39 -93 0 -16
-2 -16 -27 -2 -16 8 -62 40 -103 70 -41 30 -97 70 -125 89 -27 19 -81 57 -120
85 -38 28 -92 66 -120 85 -27 19 -66 47 -86 62 -20 16 -45 35 -55 42 -11 7
-75 53 -144 102 -69 49 -146 104 -173 122 -58 41 -66 46 -147 106 -36 27 -108
78 -160 115 -52 37 -135 96 -185 131 -49 36 -98 71 -109 78 -10 7 -37 27 -60
43 -22 17 -60 43 -84 60 -24 16 -63 46 -86 66 -41 37 -55 59 -124 209 -17 36
-46 99 -65 140 -66 141 -136 292 -202 435 -13 28 -39 84 -58 125 -19 41 -52
111 -72 155 -20 44 -47 103 -60 130 -13 28 -38 82 -55 120 -18 39 -50 108 -72
155 -60 129 -76 164 -82 180 -3 8 -10 22 -15 30 -5 8 -18 35 -29 60 -47 104
-95 209 -122 265 -37 79 -101 215 -135 290 -15 33 -45 98 -67 145 -22 47 -48
103 -58 125 -10 22 -38 83 -63 135 -24 52 -56 120 -70 150 -14 30 -45 98 -70
150 -24 52 -54 118 -67 145 -12 28 -37 82 -55 120 -18 39 -45 97 -60 130 -15
33 -47 101 -70 150 -23 50 -54 115 -68 145 -61 133 -100 218 -117 255 -21 46
-88 191 -130 280 -35 73 -99 211 -133 285 -63 138 -102 221 -134 290 -19 41
-43 93 -53 115 -10 22 -38 83 -63 135 -24 52 -59 127 -77 165 -18 39 -54 117
-81 173 -27 57 -49 107 -49 110 0 4 -29 67 -65 140 -36 73 -65 135 -65 137 0
2 -23 53 -51 112 -28 59 -60 128 -71 153 -11 25 -24 52 -28 61 -47 94 -120
264 -120 280 0 18 8 19 148 19 81 0 178 -6 217 -13z m-7200 -314 c-6 -174 -78
-2832 -140 -5243 -20 -762 -38 -1409 -41 -1439 l-6 -53 -31 29 c-90 84 -266
209 -423 300 -118 69 -405 213 -423 213 -5 0 -22 6 -38 14 -46 23 -96 44 -133
56 -19 7 -51 18 -70 26 -89 34 -179 66 -220 78 -25 8 -67 21 -95 30 -111 34
-193 58 -250 72 -33 8 -85 21 -115 29 -145 37 -249 60 -425 94 -33 7 -91 19
-130 27 -38 8 -126 23 -195 33 -69 11 -156 25 -195 31 -110 18 -352 46 -650
75 -726 72 -1758 72 -2570 0 -288 -26 -532 -52 -650 -70 -49 -8 -128 -19 -175
-26 -171 -23 -344 -51 -465 -75 -38 -7 -108 -21 -155 -30 -47 -9 -108 -20
-137 -24 -28 -5 -56 -11 -61 -14 -6 -3 -43 -13 -84 -21 -40 -8 -111 -24 -158
-35 -47 -10 -88 -19 -92 -19 -16 -2 -7 38 23 100 31 65 73 153 197 409 38 80
90 188 114 240 110 231 154 324 215 450 36 74 90 187 120 250 101 213 145 304
203 425 32 66 81 170 110 230 29 61 85 178 125 260 40 83 91 191 115 240 47
99 119 251 215 450 34 72 82 171 105 220 23 50 75 158 115 240 40 83 91 191
115 240 23 50 70 149 105 220 34 72 85 177 113 235 27 58 79 166 115 240 62
129 105 220 218 458 28 59 79 166 114 237 34 72 84 175 110 230 51 106 177
369 227 472 16 34 36 67 44 74 11 9 133 13 452 16 240 2 604 8 807 13 204 6
548 14 765 20 372 9 925 28 1480 50 135 6 364 15 510 20 146 5 328 14 405 20
77 6 253 15 390 21 138 5 286 14 330 18 44 5 102 9 128 10 l49 1 -7 -167z
m-5605 -102 c0 -11 -6 -32 -14 -48 -8 -15 -44 -89 -79 -163 -36 -74 -92 -191
-125 -260 -81 -168 -160 -335 -215 -450 -24 -52 -75 -158 -112 -235 -99 -206
-156 -327 -215 -450 -29 -60 -81 -168 -115 -240 -35 -71 -86 -179 -115 -240
-28 -60 -71 -150 -95 -200 -24 -49 -72 -151 -108 -225 -35 -74 -92 -191 -125
-260 -33 -69 -86 -179 -117 -245 -32 -66 -81 -170 -111 -230 -29 -61 -58 -122
-63 -135 -6 -14 -15 -32 -20 -40 -6 -8 -26 -51 -47 -95 -20 -44 -60 -129 -89
-190 -106 -222 -153 -320 -159 -335 -3 -8 -10 -22 -15 -30 -6 -8 -31 -60 -57
-115 -25 -55 -75 -161 -111 -235 -80 -166 -143 -298 -218 -455 -32 -66 -88
-183 -125 -260 -37 -77 -84 -176 -105 -220 -20 -44 -63 -134 -95 -200 -32 -66
-86 -177 -119 -247 -64 -132 -91 -165 -193 -233 -24 -17 -62 -43 -84 -60 -23
-16 -50 -36 -60 -43 -11 -7 -59 -42 -109 -78 -49 -35 -133 -94 -185 -131 -52
-37 -123 -87 -156 -112 -34 -25 -72 -53 -84 -61 -12 -8 -44 -31 -70 -50 -26
-19 -56 -41 -67 -48 -10 -6 -65 -46 -123 -87 -58 -41 -113 -80 -124 -87 -10
-7 -35 -26 -55 -42 -20 -15 -58 -43 -86 -62 -27 -19 -81 -57 -120 -85 -38 -28
-92 -66 -120 -85 -27 -19 -84 -59 -125 -89 -41 -30 -87 -62 -102 -70 -26 -14
-28 -14 -28 2 0 10 18 52 39 93 63 121 142 273 233 450 47 91 123 237 168 325
46 88 116 222 155 297 122 237 237 459 291 563 28 55 82 159 119 230 36 72 99
193 139 270 106 203 241 464 304 585 30 58 91 177 137 265 139 269 228 443
315 610 45 88 120 232 165 320 45 88 106 205 135 260 29 55 93 179 142 275
109 212 280 541 433 835 34 66 104 201 155 300 51 99 123 239 160 310 37 72
102 198 145 280 43 83 106 204 140 270 34 66 109 210 165 320 57 110 121 234
142 275 21 41 46 79 55 83 16 10 350 21 721 25 194 3 202 2 202 -17z m1120
-5691 c335 -13 751 -36 870 -49 52 -6 145 -16 205 -22 250 -24 381 -41 550
-71 33 -5 98 -16 145 -23 162 -24 462 -86 668 -139 34 -9 88 -23 120 -31 56
-14 154 -42 242 -70 25 -7 68 -20 95 -29 28 -8 82 -27 120 -41 39 -14 79 -29
90 -31 11 -3 34 -12 50 -19 17 -7 55 -23 85 -35 30 -12 69 -28 85 -35 17 -8
53 -24 80 -36 84 -36 244 -117 309 -156 59 -35 221 -140 241 -155 6 -5 40 -31
78 -59 37 -27 110 -92 162 -143 l95 -94 0 -158 c0 -88 3 -202 6 -255 l7 -97
-264 -6 c-452 -10 -1272 -16 -3039 -21 -938 -4 -2114 -10 -2615 -16 -1531 -16
-4101 -24 -4108 -12 -4 6 12 23 36 39 23 16 47 33 52 37 16 13 108 78 206 147
51 36 120 85 155 110 35 25 104 74 154 110 50 36 122 88 160 115 38 28 92 66
120 85 28 19 82 58 120 85 38 28 100 72 137 98 38 27 109 78 158 113 50 36
110 79 135 96 39 27 154 111 185 135 6 5 30 22 55 38 25 17 50 34 55 38 6 4
35 25 65 47 30 22 64 47 75 55 10 8 24 15 31 15 6 0 17 6 23 14 7 8 28 17 49
21 20 3 57 13 82 20 61 19 145 39 265 65 55 12 118 26 140 32 22 6 72 17 110
23 162 29 203 37 256 51 30 8 71 14 90 14 19 0 62 7 97 15 35 8 98 19 140 24
42 6 106 14 142 20 225 34 626 81 694 81 26 0 106 7 179 15 211 23 767 48
1172 53 72 0 245 -3 385 -8z m11020 0 c311 -11 736 -34 915 -50 328 -30 593
-60 795 -91 36 -6 100 -14 142 -20 42 -5 105 -16 140 -24 35 -8 78 -15 97 -15
19 0 60 -6 90 -14 53 -14 94 -22 256 -51 39 -6 88 -17 110 -23 22 -6 85 -20
140 -32 120 -26 204 -46 265 -65 25 -7 62 -17 82 -20 21 -4 42 -13 49 -21 6
-8 17 -14 23 -14 7 0 21 -7 31 -15 11 -8 45 -33 75 -55 30 -22 60 -43 65 -47
6 -4 30 -21 55 -38 25 -16 47 -32 50 -35 3 -3 40 -30 83 -60 43 -30 99 -71
125 -90 26 -19 83 -60 127 -92 105 -74 199 -141 285 -203 38 -27 92 -66 120
-85 28 -19 83 -58 123 -87 40 -28 95 -68 122 -87 28 -20 82 -60 122 -89 40
-28 126 -90 193 -137 126 -88 218 -154 235 -167 6 -4 29 -21 52 -37 24 -16 40
-33 36 -39 -7 -12 -2582 -4 -4113 12 -498 6 -1670 12 -2605 16 -1685 5 -3527
21 -3554 30 -43 16 104 318 228 467 57 70 221 227 286 276 39 28 75 55 80 60
20 15 182 120 241 155 65 39 225 120 309 156 28 12 64 28 80 36 17 7 55 23 85
35 30 12 68 28 83 36 16 8 35 14 42 14 8 0 29 6 47 14 105 44 336 117 513 162
156 40 185 47 260 64 208 48 396 86 525 105 47 7 112 18 145 23 163 28 218 36
535 71 319 35 650 57 1065 71 299 10 442 10 745 0z m-4192 -2036 c305 -3 561
-7 571 -9 10 -2 1061 -6 2337 -10 1275 -3 2564 -10 2864 -15 300 -6 619 -10
710 -10 142 0 162 -2 145 -14 -87 -59 -699 -377 -1015 -526 -352 -167 -796
-360 -825 -360 -9 0 -132 32 -273 70 -1826 500 -3622 771 -5561 840 -151 5
-276 12 -279 14 -2 3 -2 12 2 21 5 15 43 16 388 11 211 -3 632 -9 936 -12z
m-2478 2 c0 -2 3 -11 6 -20 5 -14 -8 -16 -107 -16 -205 0 -726 -27 -1179 -61
-1376 -102 -2777 -314 -4269 -645 -223 -50 -394 -83 -408 -79 -129 32 -1463
694 -1531 759 -11 11 75 14 445 20 252 3 564 8 693 11 129 3 1259 8 2510 11
1251 4 2410 10 2575 14 344 8 1265 12 1265 6z m109 -372 c38 -107 127 -279
194 -378 34 -50 107 -136 162 -192 146 -146 300 -243 495 -309 86 -30 96 -31
104 -16 5 9 10 17 12 19 1 2 11 -2 23 -9 11 -7 22 -11 24 -9 2 3 32 56 66 118
l62 112 -50 49 c-41 40 -54 61 -73 122 -20 65 -23 94 -23 239 0 91 4 200 9
244 l8 79 211 -7 c2262 -72 4351 -427 6512 -1106 811 -256 1570 -538 2445
-910 179 -76 402 -163 497 -193 551 -177 1179 -289 1893 -339 231 -16 927 -16
1155 0 1319 93 2377 403 2999 880 88 68 230 206 297 289 l57 72 37 -45 c78
-95 190 -275 265 -426 298 -600 335 -1286 113 -2083 l-36 -130 -66 -65 c-277
-271 -847 -711 -1251 -967 -1402 -887 -2736 -1098 -4383 -692 -725 179 -1383
417 -2927 1062 -1607 671 -2354 953 -3285 1243 -2162 673 -4284 933 -6515 799
-2673 -162 -5541 -888 -8690 -2200 -930 -388 -1824 -800 -2863 -1322 l-548
-275 -152 -28 c-527 -98 -993 -103 -1402 -15 -741 160 -1263 615 -1485 1294
-82 250 -110 437 -110 731 0 418 90 808 281 1218 l48 103 58 -30 c172 -86 455
-189 653 -236 651 -154 1296 -93 2180 209 436 150 969 374 1850 781 399 184
412 190 875 347 3343 1134 6161 1759 8870 1968 411 31 1010 63 1300 68 l80 2
24 -66z m14546 -4 c582 -43 1155 -209 1630 -472 219 -121 526 -338 698 -493
33 -30 33 -33 -24 -116 -227 -335 -754 -638 -1477 -850 -125 -36 -144 -39
-259 -39 l-123 0 -73 61 c-413 350 -955 482 -1512 368 -316 -65 -688 -242
-1015 -484 l-85 -63 -190 -16 c-104 -9 -219 -16 -255 -16 -174 0 -785 137
-1155 258 -123 40 -525 210 -525 221 1 3 71 60 158 127 796 613 1522 1020
2234 1252 410 134 874 228 1293 261 159 12 517 13 680 1z m-25775 -355 c788
-78 1632 -297 2558 -662 106 -42 189 -80 185 -83 -5 -4 -172 -58 -373 -119
-819 -251 -1884 -606 -2076 -692 l-110 -50 -115 34 c-139 43 -305 80 -459 104
-173 27 -543 24 -700 -5 -383 -71 -676 -216 -933 -461 -171 -165 -312 -361
-395 -551 l-33 -76 -112 -43 c-210 -81 -402 -118 -662 -128 -467 -17 -861 95
-1213 344 l-63 45 59 112 c512 966 1352 1676 2382 2015 352 115 725 191 1095
221 72 5 150 12 175 14 100 9 645 -4 790 -19z m25264 -1441 c120 -19 303 -77
406 -129 119 -60 276 -165 246 -165 -3 0 -74 -11 -158 -25 -376 -62 -824 -99
-1213 -99 -268 -1 -271 -1 -430 32 -88 19 -163 36 -168 39 -13 8 101 76 265
158 171 85 382 157 543 184 142 25 370 27 509 5z m-25619 -314 c66 -12 125
-25 132 -29 20 -11 -720 -340 -1161 -516 -180 -72 -235 -90 -329 -105 -124
-20 -357 -43 -364 -36 -10 10 107 165 191 254 233 244 527 393 878 447 143 22
497 14 653 -15z"/>
<path d="M16461 38299 c-24 -5 -71 -22 -105 -38 -203 -96 -351 -342 -411 -678
-50 -283 -36 -709 31 -953 86 -311 247 -525 449 -594 117 -40 272 -28 388 30
116 59 231 215 292 397 28 86 69 267 61 274 -13 13 -272 130 -278 126 -5 -2
-8 -15 -8 -27 0 -42 -48 -213 -75 -269 -33 -67 -95 -134 -144 -155 -53 -22
-141 -19 -196 8 -136 66 -217 256 -244 575 -50 574 80 928 340 928 135 0 251
-121 290 -302 7 -31 13 -57 14 -59 3 -4 268 99 278 107 10 10 -35 181 -69 262
-60 141 -170 271 -275 325 -99 50 -224 66 -338 43z"/>
<path d="M17997 38272 c-3 -4 -163 -493 -356 -1086 -256 -782 -349 -1081 -341
-1086 15 -9 275 -24 287 -17 5 3 42 114 83 246 65 212 77 241 95 241 42 -1
547 -39 550 -42 2 -2 22 -113 45 -248 23 -135 46 -249 51 -254 8 -9 296 -32
304 -24 2 2 -79 454 -181 1003 -101 550 -195 1056 -207 1125 l-23 125 -85 7
c-46 3 -114 9 -151 12 -37 2 -69 2 -71 -2z m186 -957 c36 -219 65 -400 64
-402 -3 -3 -379 26 -382 29 -2 2 52 180 118 395 67 216 124 389 128 385 3 -4
36 -187 72 -407z"/>
<path d="M15268 38152 c-101 -13 -118 -17 -118 -33 0 -10 54 -456 119 -991 66
-535 125 -1020 132 -1078 6 -58 15 -109 19 -113 8 -9 269 19 279 28 2 3 -30
290 -73 638 -42 347 -103 841 -134 1097 l-57 465 -25 1 c-14 1 -78 -5 -142
-14z"/>
<path d="M19141 38048 c-6 -51 -56 -457 -111 -903 -142 -1161 -145 -1184 -140
-1189 3 -2 212 -29 465 -60 253 -31 476 -59 496 -62 l35 -5 23 182 c12 100 19
185 14 189 -4 3 -163 25 -352 48 -190 23 -346 44 -348 46 -2 2 46 410 107 906
60 497 109 904 107 906 -3 4 -236 34 -263 34 -20 0 -22 -8 -33 -92z"/>
<path d="M13968 37947 c-91 -16 -118 -24 -118 -36 0 -24 376 -2151 381 -2156
4 -4 980 165 988 171 5 4 -57 355 -64 362 -3 3 -162 -22 -353 -55 -191 -34
-348 -60 -351 -58 -2 2 -73 397 -157 877 -85 480 -156 883 -159 896 -6 27 -11
27 -167 -1z"/>
<path d="M12871 37675 c-271 -74 -495 -136 -498 -139 -5 -4 562 -2135 570
-2143 5 -5 1035 272 1044 280 6 6 -75 327 -88 349 -4 6 -153 -30 -388 -92
-210 -57 -383 -101 -385 -99 -11 12 -155 574 -149 579 5 4 159 46 343 95 184
49 337 90 339 92 3 2 -87 354 -93 360 -1 1 -157 -40 -346 -91 l-345 -93 -11
31 c-26 75 -117 437 -111 443 4 3 170 50 370 104 308 82 362 100 360 115 -1 9
-21 91 -45 181 -32 121 -47 163 -58 162 -8 -1 -237 -61 -509 -134z"/>
<path d="M21165 37788 c-13 -38 -565 -2110 -565 -2121 0 -9 42 -25 125 -47 69
-18 127 -31 129 -29 1 2 101 371 221 819 119 448 220 817 222 820 3 3 3 -20
-1 -50 -28 -254 -167 -1662 -164 -1665 2 -2 55 -18 118 -35 63 -17 122 -33
131 -36 12 -3 90 162 369 781 194 432 355 783 357 781 2 -1 -93 -363 -211
-804 -118 -440 -216 -808 -218 -818 -2 -14 19 -23 121 -51 68 -18 128 -30 131
-26 6 6 453 1663 560 2074 l17 67 -206 55 c-113 30 -208 53 -211 51 -4 -1
-147 -311 -320 -688 -173 -377 -315 -684 -317 -682 -2 2 26 322 62 712 35 390
66 729 67 753 l3 45 -195 53 c-215 58 -219 58 -225 41z"/>
<path d="M11395 37225 c-133 -29 -263 -100 -336 -184 -48 -55 -111 -182 -134
-271 -11 -41 -19 -121 -22 -215 -4 -125 -1 -172 17 -279 61 -361 230 -730 449
-984 247 -285 579 -359 858 -190 111 67 239 220 303 362 54 118 59 95 -115
545 -85 223 -157 406 -158 408 -4 3 -566 -213 -574 -221 -7 -6 116 -334 128
-341 4 -3 73 20 154 51 81 31 150 52 154 48 4 -5 29 -65 55 -133 l48 -124 -37
-73 c-49 -97 -119 -173 -191 -209 -48 -23 -72 -29 -130 -29 -212 -1 -413 220
-563 619 -133 356 -131 615 8 754 59 59 113 83 197 89 62 4 80 1 128 -21 60
-28 147 -104 191 -167 l27 -39 119 90 c136 103 132 82 47 206 -64 93 -188 211
-269 256 -111 62 -229 80 -354 52z"/>
<path d="M22961 37198 c-5 -13 -181 -471 -391 -1018 -211 -547 -385 -1004
-387 -1016 -4 -18 10 -26 119 -67 68 -26 128 -47 134 -47 10 0 795 2025 798
2058 1 9 -41 30 -109 57 -160 61 -154 60 -164 33z"/>
<path d="M23192 36058 c-226 -508 -429 -963 -451 -1013 -22 -49 -37 -93 -33
-97 10 -9 234 -110 237 -106 1 2 132 295 291 652 207 466 290 642 292 623 3
-27 -42 -1228 -53 -1417 l-6 -96 132 -58 c72 -32 135 -54 139 -49 11 12 893
1995 894 2011 1 12 -203 112 -229 112 -6 0 -146 -301 -310 -670 -164 -368
-299 -669 -300 -667 -2 1 13 344 31 762 18 418 33 774 34 791 0 30 -3 33 -121
85 -67 30 -125 55 -129 57 -4 1 -192 -413 -418 -920z"/>
<path d="M10113 36612 c-62 -31 -113 -59 -113 -63 0 -4 111 -233 246 -510 351
-718 396 -813 377 -798 -9 8 -269 245 -577 527 -309 283 -567 516 -575 519
-14 6 -251 -106 -251 -118 0 -8 94 -203 500 -1034 167 -341 340 -698 386 -793
l84 -172 121 60 c74 38 119 66 116 73 -3 7 -143 293 -311 637 -169 343 -305
627 -304 631 2 3 257 -225 567 -507 311 -283 570 -514 575 -514 13 0 256 117
256 123 0 2 -98 206 -219 453 -560 1149 -752 1539 -759 1541 -4 1 -58 -24
-119 -55z"/>
<path d="M24532 35302 c-292 -527 -532 -964 -534 -971 -5 -19 234 -151 248
-137 6 6 121 209 254 451 134 242 366 661 515 930 150 270 279 504 288 522
l17 31 -120 66 c-65 36 -123 66 -128 66 -5 0 -247 -431 -540 -958z"/>
<path d="M25760 35764 c-195 -36 -389 -207 -496 -440 -45 -96 -66 -190 -66
-294 0 -146 38 -236 194 -455 130 -182 142 -205 142 -280 1 -148 -146 -297
-292 -297 -107 0 -210 68 -252 164 -31 73 -24 180 20 298 17 47 32 91 33 99 1
8 -44 33 -122 67 -69 30 -126 54 -128 54 -7 0 -67 -128 -92 -198 -66 -180 -82
-361 -41 -482 44 -131 146 -240 292 -312 95 -47 166 -62 270 -56 72 4 97 10
163 42 206 97 383 313 471 573 22 65 27 97 28 193 0 99 -3 123 -23 175 -31 76
-102 194 -191 315 -129 175 -156 261 -110 355 25 52 37 67 84 99 100 67 292 2
347 -118 26 -56 23 -128 -7 -211 -13 -38 -27 -77 -30 -85 -4 -11 29 -33 118
-80 67 -36 125 -66 128 -68 4 -1 27 42 53 95 181 379 77 689 -276 821 -57 22
-169 35 -217 26z"/>
<path d="M8275 35553 c-22 -14 -77 -53 -122 -85 l-82 -59 24 -62 c38 -101 776
-2030 786 -2055 9 -23 11 -22 111 48 57 39 114 79 126 89 l24 17 -96 237 c-53
129 -96 238 -96 240 0 12 463 328 473 323 7 -2 95 -77 195 -165 101 -89 188
-161 194 -161 12 0 249 166 249 175 0 3 -267 234 -593 512 -326 279 -716 612
-865 740 -150 128 -276 233 -280 233 -5 0 -26 -12 -48 -27z m550 -777 c160
-142 290 -261 290 -266 0 -9 -275 -207 -300 -216 -8 -4 -258 598 -311 751 -9
24 -47 56 321 -269z"/>
<path d="M26745 34993 c-49 -65 -99 -132 -112 -150 l-24 -32 169 -127 170
-127 -441 -586 c-242 -322 -490 -651 -550 -730 -60 -79 -110 -149 -111 -156
-1 -17 211 -178 224 -170 6 3 229 297 497 653 268 356 515 684 550 729 l64 83
160 -121 c88 -66 165 -122 172 -124 14 -5 230 281 222 295 -6 9 -825 629 -876
663 l-26 17 -88 -117z"/>
<path d="M7440 34959 c-58 -50 -108 -94 -113 -98 -4 -4 158 -317 359 -697 432
-813 419 -788 402 -778 -7 5 -305 233 -662 508 -590 454 -651 498 -669 487
-47 -30 -226 -186 -219 -192 14 -12 1797 -1355 1807 -1361 9 -6 99 64 213 163
l33 29 -518 1015 c-284 558 -520 1015 -523 1014 -3 0 -52 -41 -110 -90z"/>
<path d="M27833 33902 c-105 -114 -446 -479 -756 -812 l-565 -605 95 -90 c53
-49 101 -93 108 -97 9 -5 118 105 325 327 172 184 316 335 320 335 4 0 30 -25
59 -55 68 -71 85 -113 77 -185 -6 -56 -102 -348 -225 -685 l-70 -190 122 -117
c67 -64 125 -117 128 -118 7 0 198 492 249 645 49 143 62 209 64 315 l1 86 60
-25 c93 -38 199 -40 299 -7 236 80 490 354 552 597 34 132 6 240 -92 361 -40
49 -535 519 -553 525 -3 1 -92 -91 -198 -205z m408 -509 c77 -79 94 -121 78
-191 -20 -89 -132 -221 -222 -262 -70 -32 -125 -27 -193 20 -59 39 -295 251
-296 265 -1 4 84 99 188 210 l188 203 96 -88 c52 -48 125 -119 161 -157z"/>
<path d="M5987 33650 c-213 -198 -387 -363 -387 -366 0 -4 225 -246 1248
-1342 l264 -282 42 37 c22 20 202 187 399 371 l358 334 -53 57 c-29 31 -86 91
-126 134 -40 43 -77 77 -81 75 -5 -2 -138 -124 -296 -271 -158 -148 -291 -265
-294 -260 -4 4 -96 103 -204 219 -108 117 -197 214 -197 216 0 3 117 114 260
247 l260 243 -25 29 c-56 67 -220 239 -228 239 -5 0 -123 -107 -263 -237 -141
-131 -259 -238 -263 -238 -10 0 -331 343 -331 353 0 4 126 124 280 266 l279
259 -36 41 c-20 23 -78 85 -128 139 l-92 98 -386 -361z"/>
<path d="M28382 32218 c-457 -398 -832 -727 -832 -731 -2 -11 173 -216 182
-214 19 5 1673 1450 1670 1459 -4 13 -174 208 -182 208 -4 0 -381 -325 -838
-722z"/>
<path d="M28785 31758 c-462 -374 -850 -688 -863 -698 l-23 -19 339 -418 c186
-230 344 -418 350 -418 14 0 282 214 282 225 0 5 -110 145 -245 311 -135 167
-245 306 -245 310 0 3 104 91 232 194 l231 188 20 -24 c263 -325 431 -529 436
-529 11 0 281 222 281 231 0 5 -96 127 -213 272 -118 145 -217 269 -221 275
-8 14 -15 8 211 190 l161 131 75 -92 c178 -221 345 -426 378 -466 l35 -43 142
116 c79 63 143 119 142 123 0 8 -646 810 -659 817 -3 2 -384 -302 -846 -676z"/>
<path d="M4760 32301 c-47 -58 -86 -108 -88 -112 -2 -4 99 -89 224 -190 125
-101 275 -223 333 -270 58 -47 106 -91 106 -97 0 -14 -335 -432 -346 -432 -4
0 -157 121 -341 270 -183 148 -336 269 -339 267 -19 -6 -181 -219 -173 -226
10 -9 1691 -1368 1710 -1383 8 -5 42 30 102 104 l91 111 -77 63 c-42 34 -209
170 -371 301 -162 131 -296 243 -298 248 -4 15 336 430 351 429 7 -1 178 -135
379 -298 201 -163 368 -296 371 -296 8 0 176 207 176 217 0 5 -30 33 -67 64
-262 213 -1640 1326 -1648 1331 -5 3 -48 -42 -95 -101z"/>
<path d="M3590 30678 c-168 -260 -305 -475 -305 -480 0 -4 70 -53 155 -108
l155 -99 112 172 c64 98 119 171 127 171 10 -1 1008 -644 1517 -977 l26 -17
77 118 c42 66 76 121 76 124 0 3 -346 229 -770 504 -423 274 -770 502 -770
506 0 4 50 83 110 177 61 93 110 172 110 175 0 5 -288 196 -305 202 -5 1 -147
-209 -315 -468z"/>
<path d="M30345 31004 c-158 -34 -319 -127 -438 -254 -172 -183 -204 -337
-138 -673 49 -253 41 -311 -55 -395 -90 -80 -237 -107 -331 -61 -97 47 -160
161 -150 270 7 80 46 148 143 247 l81 83 -55 62 c-30 34 -73 81 -94 105 l-39
43 -47 -37 c-80 -65 -206 -196 -252 -264 -24 -35 -58 -96 -74 -135 -28 -65
-31 -79 -31 -185 1 -102 4 -122 27 -177 83 -195 237 -332 408 -363 223 -40
548 97 751 318 74 81 123 166 145 252 21 83 15 254 -16 395 -49 232 -47 318
12 389 35 43 117 86 163 86 121 0 246 -128 247 -253 1 -73 -20 -113 -97 -195
-44 -47 -64 -76 -59 -84 6 -10 131 -180 160 -217 7 -8 127 94 192 164 129 138
189 299 165 441 -26 147 -151 332 -271 397 -99 54 -218 68 -347 41z"/>
<path d="M3087 29777 c-37 -57 -118 -230 -110 -237 4 -5 235 -124 513 -265
873 -445 933 -479 1001 -569 71 -94 74 -190 7 -291 -64 -96 -164 -130 -303
-102 -84 17 -327 134 -1163 561 l-323 165 -64 -129 -64 -129 182 -94 c452
-235 1182 -597 1278 -634 169 -66 219 -77 354 -77 135 1 201 18 288 77 96 65
203 240 234 383 14 64 15 86 5 147 -24 145 -114 277 -265 388 -111 83 -271
171 -782 432 -247 126 -523 267 -612 312 l-161 84 -15 -22z"/>
<path d="M30705 28849 c-528 -246 -981 -458 -1006 -471 l-47 -23 61 -128 c46
-96 65 -127 76 -124 16 5 1994 926 1999 932 3 2 -113 254 -119 259 -2 1 -436
-199 -964 -445z"/>
<path d="M30921 28265 c-563 -228 -1026 -417 -1029 -419 -4 -4 83 -229 95
-245 1 -2 300 117 664 263 363 147 662 266 664 264 1 -2 -247 -241 -551 -532
-305 -291 -554 -534 -554 -540 0 -6 23 -68 51 -138 41 -104 54 -126 67 -120
90 33 2036 822 2040 827 7 6 -88 245 -97 245 -4 0 -308 -122 -676 -270 -367
-149 -670 -269 -672 -266 -2 2 250 246 561 541 311 296 566 542 566 547 0 11
-91 241 -99 250 -3 3 -467 -180 -1030 -407z"/>
<path d="M2496 28090 c-75 -14 -170 -65 -210 -113 -56 -68 -109 -192 -221
-516 -58 -168 -105 -309 -105 -315 0 -6 431 -159 958 -340 526 -181 998 -344
1049 -362 l91 -33 46 136 c28 80 43 139 37 142 -5 3 -199 71 -432 151 -232 80
-423 150 -426 156 -9 24 41 130 81 170 63 64 106 70 841 127 l160 12 56 160
c50 145 54 160 37 163 -26 5 -584 -26 -708 -39 -111 -12 -245 -46 -310 -79
-22 -11 -41 -20 -43 -20 -3 0 -6 35 -9 78 -13 228 -221 416 -555 503 -88 23
-262 33 -337 19z m296 -321 c180 -38 289 -142 272 -258 -7 -51 -111 -381 -124
-395 -8 -8 -506 157 -524 174 -8 8 79 270 123 372 23 53 57 85 108 103 47 17
77 18 145 4z"/>
<path d="M32345 27138 c-93 -28 -172 -52 -174 -55 -3 -2 21 -94 52 -205 32
-110 56 -202 55 -203 -2 -1 -399 -116 -882 -254 -484 -138 -882 -253 -884
-256 -3 -2 13 -66 34 -140 37 -134 38 -136 63 -130 15 4 410 117 880 251 469
135 859 243 866 241 6 -3 36 -90 65 -194 29 -103 56 -191 60 -195 5 -7 346 85
357 95 5 6 -310 1097 -316 1096 -3 -1 -82 -24 -176 -51z"/>
<path d="M1835 26771 c-7 -12 -276 -1093 -273 -1097 2 -1 83 -23 181 -47 l178
-45 8 21 c5 12 28 102 52 201 24 98 49 180 55 183 6 2 408 -96 894 -217 486
-121 886 -217 890 -213 11 12 72 265 65 271 -3 3 -402 104 -887 224 -486 121
-886 222 -890 226 -4 4 15 96 43 206 27 109 48 200 47 202 -9 9 -359 91 -363
85z"/>
<path d="M31823 25506 c-595 -116 -1084 -214 -1088 -218 -5 -5 191 -1054 199
-1065 4 -6 366 71 366 77 0 4 -34 180 -75 391 -41 211 -73 384 -71 386 4 5
558 113 576 113 12 0 29 -71 82 -346 37 -191 69 -349 72 -351 4 -4 354 62 361
68 2 2 -27 162 -65 354 -37 193 -67 351 -66 351 3 3 480 93 481 91 1 -1 35
-171 75 -377 40 -206 73 -376 74 -377 3 -4 360 67 364 72 5 4 -184 987 -196
1021 -7 19 -36 14 -1089 -190z"/>
<path d="M1934 24610 c-197 -26 -381 -100 -472 -190 -58 -57 -86 -105 -113
-195 -21 -68 -104 -637 -96 -657 3 -9 100 -27 313 -57 830 -116 1110 -155
1477 -207 219 -31 400 -54 402 -52 10 10 85 588 85 657 0 312 -295 544 -830
651 -260 52 -584 73 -766 50z m581 -320 c295 -46 492 -115 571 -202 73 -79 81
-140 49 -371 -13 -91 -22 -127 -31 -127 -8 0 -333 45 -724 100 -390 55 -712
100 -715 100 -13 0 27 249 51 321 34 106 114 167 259 199 69 16 387 4 540 -20z"/>
<path d="M32675 24135 c-264 -24 -752 -67 -1085 -96 -333 -29 -609 -56 -614
-60 -10 -9 9 -267 19 -278 3 -3 202 12 443 32 240 21 447 38 460 37 21 0 22
-4 22 -86 0 -168 0 -168 -565 -474 -165 -89 -302 -164 -304 -166 -4 -3 18
-277 25 -317 l6 -28 266 137 c430 220 503 265 606 373 32 34 59 61 60 59 56
-128 123 -202 229 -252 109 -51 163 -61 332 -60 120 0 168 5 240 23 133 32
247 91 321 165 110 111 120 192 80 661 -31 360 -33 375 -49 374 -7 -1 -228
-21 -492 -44z m159 -317 c10 -62 26 -276 26 -348 0 -41 -6 -82 -14 -98 -37
-71 -122 -113 -247 -120 -174 -10 -256 35 -283 156 -14 63 -50 391 -44 397 5
4 440 42 500 44 57 1 57 1 62 -31z"/>
<path d="M1226 23003 c-3 -4 -6 -64 -6 -134 l0 -127 63 -6 c63 -5 1262 -47
1352 -46 28 0 45 -4 40 -9 -6 -4 -318 -118 -695 -251 -377 -134 -709 -251
-737 -262 l-53 -19 0 -139 0 -138 113 -6 c61 -4 508 -20 992 -36 484 -16 932
-32 996 -35 l116 -7 6 133 c4 73 5 134 3 136 -2 2 -320 15 -707 28 -387 14
-710 26 -717 28 -7 1 314 119 715 263 l728 261 8 143 c4 79 6 144 4 146 -1 2
-464 19 -1027 38 -564 19 -1062 37 -1106 40 -45 3 -85 2 -88 -1z"/>
<path d="M31070 22417 l0 -134 323 -6 c177 -4 502 -10 722 -14 385 -6 398 -7
360 -23 -22 -9 -349 -133 -727 -276 l-687 -259 -3 -140 c-2 -77 -1 -143 2
-146 3 -4 466 -14 1030 -23 564 -9 1062 -18 1108 -20 l82 -4 0 133 0 133 -62
6 c-35 3 -265 8 -513 11 -247 3 -551 8 -674 12 l-223 6 736 276 c406 152 741
283 746 291 8 13 15 269 8 271 -7 1 -2034 38 -2125 39 l-103 0 0 -133z"/>
<path d="M2350 21285 l-1085 -362 2 -74 c1 -41 5 -110 8 -154 l6 -80 922 -164
c507 -90 1014 -181 1127 -201 113 -21 206 -37 208 -35 3 2 -19 299 -23 303 -1
1 -114 21 -251 43 -137 22 -252 43 -255 47 -6 6 -40 481 -39 543 0 24 10 28
246 104 l245 79 -7 101 c-3 55 -9 125 -13 156 l-6 56 -1085 -362z m253 -312
c18 -223 20 -303 7 -303 -25 0 -775 121 -792 128 -12 5 121 51 370 129 213 67
392 122 398 123 7 0 14 -31 17 -77z"/>
<path d="M31057 21202 c-23 -151 -30 -264 -18 -271 7 -5 116 -46 242 -92 126
-46 229 -88 229 -94 0 -44 -70 -549 -76 -555 -5 -4 -115 -19 -244 -34 -129
-15 -242 -29 -251 -32 -13 -3 -20 -35 -33 -155 -10 -83 -16 -152 -14 -154 2
-2 102 9 223 25 456 60 927 122 1450 190 297 38 554 72 571 75 l30 5 18 151
c10 83 16 152 15 153 -2 2 -247 96 -544 211 -297 114 -749 288 -1005 387 -256
99 -493 190 -526 203 l-62 23 -5 -36z m1215 -728 c207 -76 374 -141 371 -144
-6 -6 -806 -98 -812 -94 -4 4 5 86 31 297 7 57 15 87 22 84 6 -2 181 -67 388
-143z"/>
<path d="M3465 19601 c-139 -33 -160 -41 -158 -57 1 -10 40 -185 87 -388 47
-203 84 -371 82 -373 -7 -8 -577 -135 -582 -130 -3 3 -28 101 -55 219 -27 117
-63 272 -79 344 l-31 130 -179 -40 c-135 -31 -180 -45 -180 -56 0 -8 35 -164
77 -347 42 -183 74 -335 71 -339 -7 -6 -470 -116 -473 -111 -1 1 -39 166 -85
367 -45 201 -86 369 -90 373 -8 9 -345 -64 -357 -77 -5 -5 56 -280 204 -918
19 -83 29 -108 42 -108 17 0 2144 489 2149 495 2 1 -51 238 -118 525 -66 287
-120 523 -120 526 0 10 -54 0 -205 -35z"/>
<path d="M30776 19441 c-8 -36 -22 -99 -31 -139 -9 -40 -15 -75 -13 -76 1 -2
399 -95 883 -206 484 -112 887 -206 896 -209 14 -5 11 -27 -27 -191 -24 -102
-45 -194 -46 -205 -3 -17 16 -24 177 -61 99 -23 181 -41 183 -40 7 7 252 1083
250 1096 -2 10 -56 27 -181 56 l-177 41 -7 -25 c-3 -14 -25 -107 -48 -206 -37
-162 -44 -181 -61 -178 -10 2 -397 91 -859 197 -462 107 -859 198 -882 203
l-42 10 -15 -67z"/>
<path d="M30546 18484 c-20 -75 -34 -139 -31 -142 6 -6 2115 -572 2132 -572 6
0 14 8 17 18 20 68 67 254 64 256 -2 2 -259 72 -573 155 -1153 309 -1540 412
-1556 417 -13 4 -23 -22 -53 -132z"/>
<path d="M3455 18139 c-55 -6 -103 -14 -108 -18 -6 -6 -49 -303 -44 -308 1 -1
25 3 52 9 28 5 102 10 165 10 132 1 204 -20 267 -75 105 -92 97 -251 -17 -380
-123 -139 -450 -290 -805 -373 -119 -28 -320 -26 -395 4 -75 30 -128 76 -156
136 -63 136 4 290 170 391 36 22 65 42 66 45 0 10 -182 230 -191 230 -5 0 -32
-14 -61 -32 -352 -214 -474 -492 -339 -774 54 -113 123 -180 243 -238 112 -53
207 -76 349 -83 402 -21 1028 198 1328 464 120 105 225 270 250 391 44 214
-67 441 -263 537 -122 60 -310 83 -511 64z"/>
<path d="M30735 17884 c-256 -41 -431 -153 -514 -328 -124 -263 -53 -530 205
-765 228 -208 632 -394 1019 -468 136 -25 354 -23 470 6 220 54 354 164 428
352 73 183 54 353 -58 524 -59 90 -226 252 -335 324 -216 143 -582 288 -849
336 -88 16 -312 27 -366 19z m459 -348 c217 -58 456 -164 593 -265 165 -121
243 -267 213 -400 -31 -139 -113 -214 -274 -248 -171 -36 -485 37 -771 180
-266 133 -415 298 -415 460 0 145 87 246 253 292 81 23 276 14 401 -19z"/>
<path d="M3540 16344 c-487 -387 -889 -710 -894 -717 -7 -11 57 -176 105 -268
9 -18 -97 -35 1169 186 399 70 807 141 908 158 108 19 182 36 182 43 0 6 -26
69 -58 140 -54 118 -61 129 -83 126 -13 -2 -127 -23 -254 -47 -126 -25 -230
-43 -232 -42 -13 14 -231 523 -225 528 4 3 96 75 205 159 109 84 196 156 195
160 -65 152 -124 280 -128 279 -3 0 -403 -317 -890 -705z m384 -315 c42 -94
75 -174 71 -177 -4 -4 -547 -110 -793 -155 -13 -3 -20 -1 -15 4 18 18 648 498
654 499 3 0 41 -77 83 -171z"/>
<path d="M29825 16509 c-33 -65 -57 -120 -55 -123 3 -2 294 -145 647 -317 354
-172 642 -313 640 -315 -2 -2 -1392 101 -1487 110 l-56 5 -64 -129 c-35 -71
-62 -132 -59 -134 3 -3 453 -224 999 -491 l995 -485 58 121 c32 67 56 123 55
124 -2 1 -297 146 -657 321 -359 175 -649 320 -643 322 9 3 1379 -101 1505
-114 l57 -6 61 127 c33 70 59 129 57 130 -4 4 -1737 850 -1884 920 l-111 53
-58 -119z"/>
<path d="M4858 15508 c-304 -387 -379 -504 -409 -634 l-12 -51 -62 47 c-77 58
-137 80 -240 87 -200 13 -450 -99 -636 -286 -168 -168 -200 -307 -116 -501 27
-61 344 -626 367 -653 6 -6 1899 1078 1922 1101 6 6 -114 227 -133 246 -3 4
-186 -97 -405 -224 -449 -261 -402 -246 -453 -140 -33 70 -34 137 -2 200 30
58 71 116 323 457 l208 281 -76 134 c-42 73 -82 139 -89 146 -10 11 -45 -28
-187 -210z m-714 -872 c19 -8 51 -37 74 -68 41 -54 202 -323 202 -336 -1 -6
-454 -271 -478 -280 -7 -2 -153 248 -201 345 -52 105 -3 208 136 290 101 59
200 77 267 49z"/>
<path d="M29227 15323 l-78 -127 181 -181 c99 -99 180 -183 180 -187 0 -6
-129 -215 -276 -449 l-23 -37 -242 79 c-133 44 -246 78 -250 77 -9 -3 -172
-259 -167 -262 9 -6 2175 -686 2183 -686 6 0 45 57 88 126 l78 126 -43 46
c-112 123 -1540 1602 -1546 1602 -4 0 -42 -57 -85 -127z m1139 -1360 c-2 -3
-776 254 -782 260 -2 2 42 76 98 166 l101 163 293 -293 c161 -161 292 -294
290 -296z"/>
<path d="M5323 14013 c-153 -119 -310 -242 -350 -272 -40 -31 -71 -60 -70 -65
4 -12 371 -485 377 -485 14 -1 285 221 284 233 -1 7 -42 65 -93 129 -50 63
-91 119 -91 124 0 5 47 46 104 91 117 92 128 95 240 66 164 -42 262 -133 287
-268 32 -173 -89 -385 -345 -603 -188 -161 -370 -270 -512 -307 -80 -21 -207
-21 -267 0 -56 19 -141 92 -168 146 -58 114 -35 251 65 382 21 26 34 52 29 56
-4 4 -58 44 -119 88 l-111 80 -35 -36 c-107 -112 -195 -269 -223 -398 -41
-180 23 -363 178 -516 241 -238 678 -196 1132 107 373 248 648 583 716 870 41
176 14 336 -83 481 -83 125 -198 208 -363 263 -79 26 -216 51 -282 51 -14 0
-128 -82 -300 -217z"/>
<path d="M28127 13724 c-170 -218 -307 -397 -305 -398 1 -2 67 -53 145 -114
78 -62 144 -112 146 -112 2 0 102 126 222 280 120 154 222 279 227 278 4 -2
327 -253 718 -558 391 -305 715 -555 719 -555 5 0 47 50 94 110 l86 110 -32
25 c-363 286 -1703 1330 -1707 1330 -3 0 -144 -178 -313 -396z"/>
<path d="M19670 27807 c0 -6 550 -260 554 -256 4 4 -117 176 -137 196 -7 6
-86 21 -177 32 -91 12 -182 24 -202 27 -21 3 -38 4 -38 1z"/>
<path d="M15077 20144 c-3 -3 -65 -8 -139 -10 -119 -3 -271 -17 -337 -30 -24
-5 -23 -6 14 -37 21 -18 45 -37 54 -43 11 -9 -2 -20 -73 -59 -48 -26 -109 -53
-134 -60 l-47 -12 36 -7 c39 -8 146 15 191 42 22 13 32 14 54 3 25 -11 30 -9
63 24 21 19 47 35 60 35 36 0 84 27 126 70 22 22 48 40 60 40 36 0 129 36 110
44 -21 8 -30 8 -38 0z"/>
<path d="M15169 20115 c-32 -32 -37 -34 -64 -24 -27 10 -35 8 -85 -26 -30 -20
-75 -47 -100 -60 -25 -13 -53 -32 -63 -42 -17 -19 -16 -20 38 -33 46 -11 64
-22 105 -66 54 -57 55 -60 41 -98 -8 -19 -6 -30 10 -51 l21 -26 -41 -54 c-45
-59 -46 -66 -30 -128 9 -38 16 -44 64 -65 55 -24 69 -23 92 9 7 9 26 19 42 22
78 16 491 196 491 215 0 5 -11 14 -25 20 -53 24 -21 44 55 35 l50 -6 0 47 c0
51 -1 50 34 34 40 -18 66 11 66 74 0 61 16 93 74 146 25 23 45 42 43 42 -1 0
-40 -7 -87 -15 -110 -19 -110 -19 -110 10 0 24 3 25 60 25 64 0 72 6 40 35
-17 16 -30 17 -102 10 -46 -4 -108 -9 -138 -10 -59 -3 -105 -18 -131 -41 -13
-12 -21 -13 -43 -3 -24 11 -28 10 -42 -9 -11 -15 -26 -22 -50 -22 -32 0 -34 2
-34 36 0 30 -3 35 -17 29 -48 -19 -84 -18 -106 3 l-23 22 -35 -35z"/>
<path d="M14085 20100 c-34 -35 -44 -37 -77 -11 l-25 20 -58 -48 c-51 -42 -83
-86 -72 -98 2 -2 27 15 55 37 38 30 56 39 67 32 10 -5 38 -4 70 1 40 8 56 16
63 33 6 12 21 25 33 29 22 7 22 8 4 21 -25 19 -27 18 -60 -16z"/>
<path d="M14208 20093 c7 -12 12 -38 12 -57 0 -24 5 -36 14 -36 7 0 25 -9 39
-20 24 -19 28 -20 104 -5 l78 14 -75 -5 -75 -6 -39 56 c-42 61 -79 99 -58 59z"/>
<path d="M18381 19977 c-6 -6 -11 -21 -11 -33 0 -33 -48 -49 -104 -35 -25 6
-60 11 -79 11 -30 0 -36 -5 -52 -40 -10 -22 -24 -45 -32 -51 -20 -17 -16 -26
14 -34 44 -11 7 -25 -67 -25 -80 0 -98 -9 -70 -35 15 -13 20 -31 20 -67 l0
-48 -46 0 c-40 0 -45 2 -39 18 19 45 17 53 -31 105 -27 28 -52 53 -55 55 -4 2
-10 -11 -14 -29 l-7 -32 -62 6 c-33 3 -80 13 -103 21 -50 17 -53 13 -17 -25
l26 -27 -64 -20 -63 -21 -23 21 -22 22 -33 -32 -33 -32 -21 21 -21 22 -32 -37
c-19 -21 -41 -36 -54 -36 -12 0 -46 -20 -75 -45 -29 -25 -63 -45 -75 -45 -29
0 -114 86 -100 100 7 7 16 4 29 -10 26 -29 100 -28 132 2 l23 22 -21 22 c-16
17 -29 22 -48 18 -18 -4 -39 3 -71 25 -32 22 -57 31 -86 31 -28 0 -47 6 -59
20 -16 18 -31 20 -129 20 l-111 0 -68 -62 c-38 -34 -86 -85 -108 -114 -30 -42
-47 -55 -75 -60 -19 -3 -49 -18 -65 -31 l-29 -24 25 -49 c24 -48 26 -49 55
-39 16 6 39 26 51 45 11 19 23 34 26 34 3 0 3 -20 1 -44 -5 -38 -2 -48 18 -67
16 -15 24 -34 24 -56 0 -37 6 -40 39 -17 28 20 60 88 61 129 0 23 17 48 68
104 l69 75 32 -14 32 -13 -42 -43 c-24 -24 -40 -46 -36 -50 9 -10 86 -23 137
-24 l45 0 -40 -23 c-25 -14 -41 -31 -43 -45 -2 -12 -13 -27 -25 -34 -12 -6
-51 -32 -87 -58 -101 -73 -104 -74 -138 -45 -25 21 -34 23 -62 15 -39 -11 -52
-3 -70 40 -14 33 -31 38 -50 15 -11 -13 -11 -20 0 -40 17 -31 12 -35 -46 -46
-30 -6 -53 -17 -66 -34 -11 -14 -25 -25 -31 -25 -7 0 -36 17 -66 37 -53 37
-53 37 -47 80 3 23 2 44 -3 47 -7 5 -81 -11 -89 -19 -4 -3 31 -69 50 -97 10
-14 8 -22 -15 -46 -33 -35 -35 -69 -4 -82 12 -5 18 -9 13 -9 -6 -1 -3 -7 5
-13 11 -10 14 -30 11 -80 -4 -80 -1 -78 -140 -52 -46 8 -86 13 -89 11 -2 -3 0
-14 5 -24 10 -19 8 -130 -2 -141 -3 -3 -6 -19 -6 -35 l0 -30 53 7 c28 3 91 9
140 13 l87 6 0 48 c0 39 3 49 17 49 9 0 42 20 72 43 78 61 99 71 117 56 11 -9
21 -9 44 1 28 11 33 10 54 -9 12 -11 31 -21 42 -21 14 0 24 -11 33 -36 8 -23
24 -40 45 -51 18 -8 37 -27 43 -42 l10 -26 13 27 c11 23 10 30 -9 54 -11 15
-21 35 -21 45 0 13 -7 19 -23 19 -13 0 -34 11 -47 25 l-23 25 27 0 c61 0 166
-76 166 -120 0 -9 10 -22 23 -29 12 -7 37 -32 56 -57 18 -24 37 -44 42 -44 12
0 11 37 0 78 -14 47 18 81 79 85 l45 3 0 43 c0 36 4 45 27 57 15 8 29 23 33
33 6 19 7 19 63 -2 60 -21 107 -18 84 5 -17 17 -15 38 4 38 19 0 49 -23 123
-92 53 -51 53 -51 39 -82 l-15 -31 -38 38 c-29 29 -45 37 -73 37 -65 0 -162
-20 -228 -46 -59 -24 -64 -28 -64 -57 0 -22 11 -40 41 -69 l42 -40 38 38 38
37 63 -13 c35 -7 65 -14 67 -16 1 -1 -9 -19 -24 -38 -24 -32 -26 -39 -16 -67
9 -27 8 -36 -10 -60 -11 -16 -28 -33 -37 -37 -29 -14 -153 -5 -239 17 -116 30
-140 28 -148 -9 -6 -28 -10 -30 -53 -30 -44 0 -52 4 -124 70 -42 39 -79 79
-83 89 -5 16 -16 17 -123 14 -263 -8 -341 -15 -335 -29 4 -10 -5 -14 -35 -14
-38 0 -45 -6 -208 -177 -92 -98 -179 -190 -193 -205 l-25 -28 24 -25 c21 -22
22 -29 15 -87 -4 -35 -9 -92 -10 -128 l-3 -65 117 -115 c64 -64 131 -122 149
-129 30 -13 35 -12 57 9 l25 23 101 -27 102 -27 28 27 c27 26 30 27 111 20 53
-4 101 -15 134 -30 l51 -24 5 -91 c3 -73 8 -97 26 -121 16 -20 22 -43 22 -78
0 -41 5 -53 30 -77 28 -27 30 -33 30 -106 0 -43 -5 -81 -10 -84 -6 -4 -20 -24
-31 -47 -17 -33 -18 -45 -9 -71 6 -17 19 -40 29 -52 24 -26 47 -178 32 -216
-6 -16 -6 -30 0 -36 5 -5 35 -58 67 -117 31 -60 65 -114 74 -120 17 -11 155 1
284 25 58 10 62 13 77 49 10 27 31 48 73 77 57 37 59 40 62 86 3 42 6 49 35
61 52 21 61 39 48 90 -14 56 -14 53 8 59 10 2 28 25 39 50 17 39 25 46 53 49
48 5 73 58 77 168 3 76 2 87 -17 104 -16 14 -21 31 -21 66 0 45 2 48 66 101
70 57 108 102 124 143 5 14 24 32 42 40 65 27 136 132 154 227 l7 34 -24 -21
c-22 -20 -30 -21 -94 -13 -38 5 -81 12 -94 15 -13 3 -84 64 -158 136 l-133
131 -1 56 c-1 82 -10 105 -41 109 -23 3 -48 35 -48 62 0 13 56 13 79 0 10 -5
33 -32 51 -60 18 -28 40 -50 49 -50 10 0 22 -13 29 -34 7 -18 21 -41 32 -51
15 -13 20 -31 20 -64 0 -46 1 -48 57 -84 l58 -38 95 45 c52 25 100 46 107 46
6 0 17 16 24 35 12 33 16 35 56 35 37 0 46 5 70 36 15 20 47 60 70 89 l41 53
-60 4 c-43 3 -63 9 -70 21 -11 20 -28 22 -28 5 0 -7 -19 -22 -41 -33 l-42 -20
-16 24 c-9 13 -49 59 -89 101 -39 42 -69 80 -65 83 13 13 60 7 75 -10 9 -10
25 -37 37 -60 11 -23 26 -45 32 -49 23 -14 118 -7 144 10 24 16 27 15 53 -4
15 -11 47 -24 72 -28 25 -5 63 -21 84 -35 21 -15 45 -27 52 -27 7 0 28 18 45
40 36 44 49 50 49 20 0 -14 7 -20 21 -20 16 0 19 -4 14 -17 -21 -50 -19 -53
24 -53 23 0 55 -9 73 -20 42 -26 57 -25 67 2 6 18 11 8 25 -53 9 -41 24 -86
33 -99 11 -15 16 -41 15 -74 -2 -57 2 -67 39 -83 16 -7 36 -32 53 -67 25 -51
30 -56 60 -56 23 0 41 9 61 30 26 27 28 33 22 92 -5 60 -4 65 27 103 17 22 40
52 49 68 11 16 26 27 40 27 29 0 47 18 47 46 0 25 32 54 80 74 52 22 83 0 174
-124 45 -61 89 -123 98 -138 10 -14 30 -29 46 -33 26 -5 28 -9 29 -56 1 -60
43 -152 100 -218 41 -48 117 -101 145 -101 42 0 11 62 -95 189 -57 68 -78 119
-63 156 5 13 15 9 59 -23 74 -55 164 -112 177 -112 6 0 15 12 20 26 6 14 19
28 30 31 27 7 25 21 -11 78 -26 41 -29 53 -22 79 8 26 5 36 -18 66 -16 19 -35
49 -43 65 -15 27 -14 31 1 43 20 15 67 16 93 2 12 -7 21 -7 25 0 3 5 16 15 28
21 18 9 20 9 10 -2 -7 -7 -13 -17 -13 -21 0 -14 57 -8 70 7 8 9 30 15 60 15
56 0 70 15 90 99 l13 55 -31 27 c-17 15 -38 43 -48 61 -9 18 -39 58 -65 87
-44 49 -54 68 -50 93 1 8 -64 28 -94 28 -18 1 -17 4 9 24 16 13 51 34 78 47
l49 23 41 -48 c23 -26 58 -59 79 -72 22 -13 47 -41 57 -62 11 -24 25 -38 40
-40 30 -4 28 4 -14 74 -64 106 -75 133 -72 177 3 38 5 42 31 42 23 0 31 8 52
53 14 30 25 55 25 56 0 1 -20 17 -45 36 -42 31 -45 37 -45 80 0 40 -5 51 -37
82 -53 50 -78 61 -101 47 -16 -10 -26 -8 -58 11 -22 13 -41 25 -43 26 -6 5 46
88 68 108 20 18 22 18 41 1 19 -17 50 -15 50 5 0 5 5 10 10 10 6 0 10 -6 10
-14 0 -19 39 -46 67 -46 16 0 35 20 73 78 52 76 53 77 96 77 26 0 44 -5 44
-11 0 -6 10 -35 22 -63 18 -45 19 -57 9 -89 -10 -34 -9 -39 13 -58 13 -11 57
-39 97 -62 41 -23 85 -50 98 -59 24 -17 24 -17 18 7 -3 14 -9 49 -13 78 -6 49
-10 56 -48 79 -47 30 -65 51 -66 74 0 22 19 29 69 22 46 -6 97 11 123 42 24
27 22 42 -4 50 -39 12 -99 57 -114 88 -21 40 -11 45 17 8 21 -29 27 -31 83
-31 47 0 64 -4 83 -21 l22 -22 11 28 c15 39 2 48 -72 53 -47 3 -69 10 -88 26
-17 15 -60 30 -133 46 -101 22 -108 22 -126 6 -13 -12 -41 -18 -87 -21 -58 -3
-72 0 -91 17 -16 15 -29 19 -50 13 -15 -3 -76 -8 -135 -11 -115 -4 -161 3
-454 70 -183 41 -281 52 -348 36 -48 -10 -50 -10 -80 19 -28 27 -40 31 -135
40 -142 15 -268 13 -316 -4 -22 -8 -41 -15 -43 -15 -6 0 52 45 81 64 l29 18
-23 24 c-19 21 -21 27 -10 50 6 15 10 28 9 29 -2 2 -46 -2 -98 -9 l-95 -12
-41 27 c-31 21 -44 25 -53 16z m-242 -293 c6 -15 10 -28 8 -30 -2 -2 -26 4
-55 13 -48 16 -50 17 -29 29 37 20 63 16 76 -12z m-1879 -548 c-8 -7 -33 -16
-55 -20 l-40 -5 40 19 c50 23 76 27 55 6z m1450 -170 c0 -8 -4 -17 -8 -20 -5
-3 -7 -18 -4 -34 2 -20 19 -41 53 -68 51 -40 56 -52 38 -86 -9 -16 -7 -24 10
-42 28 -29 27 -37 -9 -71 l-30 -29 -27 26 c-16 15 -40 31 -55 37 -27 10 -28
13 -28 80 0 65 -2 71 -30 94 -16 14 -39 28 -50 32 -20 6 -26 30 -12 52 24 37
152 61 152 29z m225 -44 c-9 -36 -23 -52 -46 -52 -38 0 -20 90 21 102 21 7 33
-18 25 -50z"/>
<path d="M14076 19947 c-19 -14 -20 -68 -1 -74 6 -1 25 6 44 18 l33 20 -23 25
c-26 28 -29 28 -53 11z"/>
<path d="M13668 19924 c-27 -14 -54 -51 -44 -61 2 -3 26 2 53 10 26 8 63 18
82 21 34 6 34 6 16 -14 -10 -11 -16 -22 -14 -24 9 -7 125 -26 165 -26 35 0 43
4 48 23 10 37 7 39 -23 21 -29 -17 -30 -17 -70 15 -23 18 -41 37 -41 42 0 14
-142 9 -172 -7z"/>
<path d="M13531 19823 c-23 -28 -37 -70 -28 -80 4 -3 22 4 42 16 22 12 53 21
79 21 42 0 42 0 38 -33 -3 -26 -10 -36 -30 -44 l-27 -10 40 -11 c69 -20 145
-15 203 14 53 26 96 69 86 85 -3 5 -22 9 -42 10 -20 0 -46 4 -57 8 -11 4 -34
3 -52 -2 -29 -9 -36 -7 -57 12 -20 19 -27 20 -50 10 -23 -11 -29 -10 -49 9
-32 30 -71 28 -96 -5z"/>
<path d="M14180 19810 c0 -45 16 -70 45 -70 31 0 32 17 3 60 -31 46 -48 49
-48 10z"/>
<path d="M14305 19787 l-26 -22 31 -24 c20 -15 41 -21 56 -18 33 6 113 -10
141 -28 l23 -16 -28 -42 c-16 -23 -37 -57 -46 -74 -12 -25 -23 -33 -44 -33
-15 0 -34 -5 -42 -10 -11 -7 1 -10 40 -10 47 0 58 -4 87 -32 l33 -32 22 21
c18 17 27 19 42 11 13 -7 25 -7 43 1 24 11 25 17 5 70 -7 19 36 5 64 -21 22
-19 22 -19 43 15 26 43 27 57 1 57 -15 0 -20 7 -20 28 0 33 -7 42 -42 65 -16
10 -28 23 -28 30 0 12 -115 47 -154 47 -11 0 -29 9 -41 20 l-22 20 -25 -20
c-33 -25 -48 -25 -48 0 0 27 -32 26 -65 -3z"/>
<path d="M14075 19789 c-4 -10 5 -39 19 -68 32 -63 32 -75 1 -95 -14 -9 -25
-25 -25 -35 0 -31 -56 -38 -84 -12 -14 14 -35 21 -60 21 -20 0 -35 3 -33 8 7
10 -163 14 -177 4 -6 -5 -39 -9 -72 -10 -50 -1 -65 3 -79 19 -10 10 -22 19
-26 19 -5 0 -47 -30 -95 -66 -81 -62 -88 -65 -125 -59 -46 8 -44 20 5 29 37 7
156 80 156 96 0 5 -17 10 -38 10 -26 0 -45 7 -57 20 -15 17 -31 20 -91 20 -40
0 -76 -4 -79 -10 -3 -5 -15 -10 -26 -10 -10 0 -18 -6 -16 -12 1 -9 -15 -14
-52 -16 -51 -3 -56 -1 -92 34 -33 33 -42 36 -76 32 -21 -3 -69 -18 -106 -32
l-67 -27 -30 21 c-25 18 -35 20 -67 11 -33 -9 -40 -8 -60 11 l-23 21 -50 -23
-50 -23 -23 21 -23 22 -12 -33 c-7 -19 -23 -44 -36 -56 -20 -19 -28 -21 -44
-12 -30 16 -48 14 -91 -13 -26 -17 -40 -34 -44 -54 -5 -26 -11 -30 -54 -37
-26 -4 -64 -13 -83 -21 -35 -15 -80 -51 -80 -65 0 -13 56 -27 71 -18 37 23 39
5 4 -31 -34 -34 -45 -40 -82 -40 -45 0 -51 -10 -34 -53 6 -17 8 -17 25 2 10
11 35 23 55 27 61 10 100 25 113 42 7 9 44 25 81 34 38 10 81 27 96 37 26 19
29 19 45 3 11 -11 19 -13 24 -6 44 65 172 54 187 -17 7 -29 9 -31 39 -25 17 4
50 9 74 13 41 6 42 5 41 -23 -2 -79 -16 -132 -46 -170 -17 -21 -60 -91 -94
-154 -47 -87 -79 -132 -130 -182 -65 -64 -68 -69 -58 -97 8 -24 6 -37 -10 -70
-12 -22 -21 -42 -21 -44 0 -2 23 -18 50 -35 51 -32 58 -48 39 -84 -9 -16 -7
-24 11 -43 l22 -24 -21 -27 c-28 -36 -27 -75 4 -104 14 -13 25 -30 25 -37 0
-9 7 -13 18 -11 10 2 16 11 14 23 -15 94 -14 130 7 149 17 15 19 26 14 62 -10
75 13 50 47 -50 17 -52 40 -106 51 -120 14 -18 19 -40 19 -91 l0 -67 62 -70
62 -70 70 6 c39 3 78 7 86 7 8 1 78 -25 155 -58 255 -109 345 -164 345 -210 0
-15 9 -36 20 -48 19 -20 19 -21 -41 -110 -54 -81 -60 -94 -55 -127 5 -30 0
-46 -25 -87 l-32 -51 44 -47 c33 -38 55 -51 98 -64 l56 -16 5 -51 c5 -48 8
-53 64 -96 64 -50 207 -126 237 -126 23 0 24 5 -3 -102 l-22 -89 31 -57 c39
-72 48 -106 68 -262 18 -140 35 -202 71 -255 16 -24 24 -50 24 -78 0 -39 3
-44 45 -70 25 -16 45 -37 45 -46 0 -22 52 -71 111 -105 51 -29 92 -35 83 -11
-3 7 6 29 20 48 32 42 33 57 2 86 -22 20 -23 28 -20 108 3 63 8 91 20 104 19
21 19 21 -16 36 l-25 10 38 16 c21 9 53 19 73 23 36 7 36 9 17 61 -4 11 53 33
86 33 8 0 34 21 57 47 34 40 44 46 56 35 41 -34 89 105 69 199 -6 28 -9 54 -6
59 3 4 20 11 39 14 55 10 111 58 141 121 24 48 27 64 22 114 -6 56 -6 58 26
81 64 47 85 95 86 196 l1 72 -45 7 c-25 3 -69 19 -98 34 -29 15 -71 30 -94 33
-52 7 -101 31 -151 74 -22 19 -46 34 -53 34 -7 0 -37 -14 -67 -31 -54 -30 -55
-30 -74 -12 -18 19 -18 20 2 46 20 25 20 28 4 59 -41 82 -58 95 -131 102 -74
8 -113 32 -113 71 0 29 -23 48 -94 79 -63 28 -87 31 -116 16 -15 -8 -22 -6
-33 10 -12 17 -21 20 -53 15 -26 -4 -59 0 -97 13 l-58 20 -45 -25 c-41 -23
-52 -25 -118 -18 -104 9 -122 20 -118 73 l4 42 -89 0 c-56 0 -93 4 -101 12
-20 20 -15 96 8 125 23 30 26 63 6 63 -8 0 -36 -20 -64 -45 -42 -38 -56 -45
-91 -45 -37 0 -43 4 -68 43 -25 40 -67 137 -61 142 2 1 18 7 36 14 18 8 32 21
32 30 0 9 5 33 11 54 8 31 14 37 36 37 15 0 34 6 42 14 26 22 131 39 164 27
42 -16 72 -13 92 9 l18 20 24 -21 c20 -19 26 -21 49 -11 29 14 44 8 44 -16 0
-9 9 -28 20 -42 11 -14 20 -32 20 -40 0 -8 5 -32 11 -54 l11 -38 30 28 c47 45
53 62 30 87 -14 16 -18 31 -15 54 4 27 17 39 72 74 46 30 81 45 116 48 48 6
50 7 85 70 36 63 38 65 171 138 181 101 231 120 274 104 30 -10 37 -9 69 13
32 22 34 25 17 31 -36 11 -44 31 -26 59 17 25 17 26 -7 26 -14 0 -53 -11 -87
-26 -84 -33 -91 -22 -10 16 75 35 148 50 233 49 57 -1 59 -1 33 -13 l-28 -12
41 -29 40 -28 24 22 c20 19 28 21 46 11 33 -18 33 -7 0 25 -42 40 -39 69 10
101 22 15 40 29 40 31 0 3 -22 2 -49 -2 l-50 -7 12 31 c10 27 8 33 -12 55 -22
23 -23 28 -11 57 18 43 3 51 -92 46 -43 -2 -78 0 -78 4 0 19 -64 79 -96 89
-43 15 -49 10 -36 -29 l11 -31 -44 0 c-35 0 -48 -5 -64 -26 -12 -15 -21 -34
-21 -43 0 -9 -13 -29 -30 -46 -47 -48 -127 -141 -138 -161 -10 -17 -16 -13
-65 41 -88 98 -157 179 -157 187 0 4 21 18 48 30 39 19 52 32 74 79 l28 56 70
7 c73 8 84 19 28 30 -29 6 -31 8 -14 18 13 7 25 7 41 0 17 -8 36 -7 71 4 26 8
73 14 104 14 54 0 59 2 83 34 l26 33 -22 21 c-22 21 -23 21 -63 3 -80 -36 -79
-37 -112 21 -17 29 -47 71 -66 93 -28 33 -36 37 -41 24z m579 -690 c-3 -5 -13
-13 -22 -18 -16 -8 -17 -5 -14 25 4 33 5 34 23 18 10 -9 16 -21 13 -25z m-854
-94 c25 -24 62 -54 82 -68 l36 -24 -46 -39 c-46 -39 -107 -74 -128 -74 -16 0
-11 95 7 116 13 15 12 16 -11 9 -14 -4 -51 -35 -82 -69 l-57 -61 -1 41 c0 29
8 51 30 82 l31 41 -43 11 c-24 6 -46 12 -51 13 -4 1 0 13 9 26 25 36 71 52
129 46 42 -5 58 -13 95 -50z"/>
<path d="M15682 19561 l-24 -6 26 -24 c26 -24 29 -25 101 -14 82 12 121 31 88
44 -22 9 -160 9 -191 0z"/>
<path d="M11890 19247 c-27 -8 -30 -12 -15 -14 24 -4 73 11 59 19 -5 3 -25 0
-44 -5z"/>
<path d="M15993 19239 c-35 -17 -43 -26 -43 -49 0 -16 -3 -36 -6 -44 -5 -13 2
-12 39 6 34 18 47 31 56 59 18 59 17 59 -46 28z"/>
<path d="M11785 19220 c-19 -8 -19 -9 2 -9 12 -1 25 4 28 9 7 12 -2 12 -30 0z"/>
<path d="M20100 19219 c0 -3 9 -32 20 -64 11 -32 20 -66 20 -77 0 -11 14 -25
35 -35 19 -9 35 -23 35 -31 0 -16 54 -72 69 -72 6 0 2 15 -9 33 -11 17 -20 49
-20 69 0 31 -5 40 -27 52 -30 15 -79 64 -106 106 -10 13 -17 22 -17 19z"/>
<path d="M20320 18935 c-20 -22 -21 -27 -10 -79 9 -45 15 -56 31 -56 17 0 19
-7 19 -66 0 -63 -1 -65 -30 -75 -22 -8 -30 -17 -30 -34 0 -16 -9 -26 -30 -35
-53 -22 -57 -37 -22 -73 l32 -32 0 33 c0 28 5 35 34 47 19 8 66 20 105 26 39
7 71 16 71 21 0 15 -21 51 -43 76 l-21 22 21 22 22 21 -46 53 c-25 28 -45 56
-44 61 1 4 14 13 29 18 l28 10 -47 31 -48 32 -21 -23z"/>
<path d="M13443 18243 c-27 -5 -30 -18 -7 -27 23 -9 114 -7 114 2 0 27 -43 37
-107 25z"/>
<path d="M13582 18217 l-23 -13 21 -19 c23 -20 110 -28 116 -10 4 11 -59 55
-78 55 -7 -1 -23 -6 -36 -13z"/>
<path d="M20136 18183 c4 -16 8 -30 10 -32 2 -2 -8 -18 -21 -36 -14 -17 -25
-41 -25 -51 0 -30 56 -77 139 -119 63 -31 73 -34 69 -18 -5 20 -167 283 -174
283 -2 0 -1 -12 2 -27z"/>
<path d="M13771 18161 c-13 -13 -21 -34 -21 -55 l0 -34 67 4 c51 2 71 8 87 23
l20 21 -25 26 c-36 36 -99 44 -128 15z"/>
<path d="M20080 17769 c-25 -38 -52 -69 -61 -69 -9 0 -19 -8 -21 -18 -3 -11
-32 -28 -74 -45 -98 -39 -99 -40 -83 -68 8 -13 14 -42 14 -64 l0 -40 55 -6
c30 -3 67 -11 82 -17 20 -8 37 -8 70 2 39 11 43 15 43 44 0 20 11 45 29 68
l28 36 -28 29 -29 30 23 39 c28 50 28 60 -3 60 -24 0 -24 0 -9 42 8 22 13 42
12 43 -2 2 -23 -28 -48 -66z"/>
<path d="M19440 17640 c56 -90 120 -179 172 -239 33 -39 34 -39 76 -28 42 11
51 20 32 32 -5 3 -25 34 -44 68 -50 88 -100 143 -144 158 -20 6 -56 29 -79 50
-24 22 -47 39 -53 39 -6 0 13 -36 40 -80z"/>
<path d="M20580 17545 l-21 -23 23 -5 c13 -4 32 -13 43 -20 17 -13 18 -17 5
-32 -14 -17 -12 -18 18 -13 27 4 33 1 38 -18 5 -19 14 -23 52 -26 41 -3 46 -6
56 -34 6 -17 19 -39 29 -48 9 -10 17 -21 17 -24 0 -4 23 -13 51 -19 49 -12 53
-11 85 14 l34 26 58 -55 c32 -30 73 -63 91 -72 l33 -18 -7 34 c-12 56 -47 107
-94 138 -24 17 -50 30 -57 30 -7 0 -20 16 -30 35 -12 25 -32 42 -76 64 -83 42
-139 49 -174 22 -39 -30 -61 -27 -78 13 -9 22 -24 37 -44 44 -26 9 -33 7 -52
-13z"/>
<path d="M20206 17504 c-38 -36 -38 -37 -31 -92 10 -82 13 -86 42 -52 14 17
33 30 43 30 28 0 34 19 15 40 -14 15 -16 29 -11 65 9 56 -4 58 -58 9z"/>
<path d="M19730 17341 c0 -12 137 -31 213 -30 l62 1 -80 19 c-84 19 -195 25
-195 10z"/>
<path d="M20588 17232 c-9 -9 -25 -36 -37 -59 -11 -23 -31 -51 -43 -63 -28
-26 -84 -27 -97 -1 -6 10 -23 21 -38 24 -24 5 -35 -2 -84 -55 -34 -36 -59 -56
-63 -49 -12 18 -24 13 -63 -30 -33 -36 -41 -39 -73 -34 -32 5 -40 1 -97 -51
-62 -55 -63 -55 -99 -44 -29 10 -45 10 -75 0 -42 -14 -44 -21 -29 -85 8 -34 6
-43 -12 -62 -20 -21 -20 -28 -11 -80 9 -48 7 -65 -8 -110 -11 -29 -19 -64 -19
-78 0 -24 3 -25 53 -25 110 0 321 60 390 111 38 28 112 29 140 1 19 -20 20
-23 5 -39 -18 -20 -36 -78 -22 -71 5 2 48 23 95 46 87 42 157 58 115 27 -55
-42 -78 -68 -66 -75 9 -5 9 -9 1 -14 -12 -8 -15 -64 -5 -89 4 -12 19 -9 81 20
l75 35 34 -33 34 -33 216 214 c212 212 215 215 209 250 -8 44 -31 80 -50 80
-11 0 -15 12 -15 46 0 42 -3 47 -31 57 -24 9 -29 16 -23 32 3 11 8 36 11 56 4
33 2 37 -27 49 -27 11 -31 17 -30 49 4 75 1 78 -25 36 -13 -22 -25 -49 -25
-61 0 -11 -9 -29 -20 -39 -11 -10 -25 -33 -32 -51 -11 -32 -15 -34 -58 -34
-39 1 -52 7 -95 45 -42 38 -47 45 -28 45 16 0 21 4 16 16 -3 8 4 29 17 46 18
25 20 32 9 39 -8 5 -17 9 -21 9 -3 0 -20 11 -36 25 -28 23 -30 23 -44 7z"/>
<path d="M17788 17199 c-9 -13 -28 -43 -42 -66 -24 -40 -29 -43 -69 -43 -33 0
-49 -6 -66 -24 -21 -22 -22 -29 -12 -56 9 -27 7 -36 -11 -60 -13 -18 -19 -37
-15 -52 3 -13 0 -31 -8 -42 -12 -16 -12 -22 2 -42 13 -20 23 -24 69 -24 30 0
54 5 54 10 0 6 6 10 14 10 8 0 17 11 20 24 13 54 69 188 93 223 l25 37 -20 65
c-19 65 -19 65 -34 40z"/>
<path d="M21520 16477 c-8 -18 -39 -47 -67 -67 -53 -34 -53 -34 -53 -87 0 -29
4 -53 8 -53 5 0 36 25 70 55 55 51 63 54 86 44 19 -9 33 -9 60 3 l36 14 -51
39 c-28 22 -56 50 -62 62 -12 21 -12 21 -27 -10z"/>
<path d="M21266 16304 c-34 -39 -43 -44 -82 -44 -37 0 -54 -8 -126 -62 l-83
-63 49 -3 c37 -2 53 1 70 17 11 10 39 22 61 26 59 10 139 61 183 117 10 13 11
22 2 37 -15 30 -30 25 -74 -25z"/>
<path d="M14780 6231 c-120 -25 -125 -27 -128 -52 -3 -24 1 -27 35 -34 69 -13
73 -18 73 -94 0 -38 -20 -291 -45 -562 -25 -271 -44 -493 -42 -495 1 -2 37 0
80 3 91 7 81 -11 97 186 7 77 18 164 26 195 42 167 178 339 294 372 41 12 77
-5 85 -39 3 -14 -8 -136 -25 -271 -16 -135 -30 -260 -30 -278 0 -108 95 -170
197 -127 32 13 153 129 153 146 0 4 -10 14 -23 22 -22 14 -25 13 -65 -25 -58
-54 -86 -51 -90 13 -2 25 8 133 23 239 14 106 25 220 25 252 0 128 -64 201
-177 201 -105 0 -212 -79 -312 -228 l-53 -80 6 50 c3 28 17 169 31 315 14 146
27 277 30 293 6 34 3 34 -165 -2z"/>
<path d="M14213 6063 c-36 -5 -38 -10 -49 -175 l-6 -98 -28 0 c-15 0 -48 -3
-72 -6 -43 -6 -46 -8 -52 -42 -3 -20 -2 -39 2 -43 4 -3 37 -3 75 0 56 5 67 4
67 -9 0 -8 -9 -143 -20 -298 -22 -305 -20 -343 23 -391 97 -107 288 -45 398
129 l28 45 -22 17 c-12 10 -25 18 -28 18 -3 0 -20 -21 -39 -46 -64 -90 -154
-130 -193 -86 -22 24 -22 72 -1 389 l17 252 66 6 c168 15 161 13 161 51 0 45
-1 49 -8 48 -4 -1 -53 -5 -110 -9 l-103 -7 6 73 c3 41 8 100 11 132 l5 57 -48
-2 c-26 0 -62 -3 -80 -5z"/>
<path d="M16041 5885 c-140 -39 -270 -146 -333 -272 -110 -221 -48 -474 140
-564 62 -31 196 -38 273 -15 70 20 158 78 232 151 l58 58 -25 25 -24 25 -58
-51 c-99 -89 -203 -124 -299 -103 -90 20 -140 78 -160 183 l-7 36 64 7 c243
28 437 125 494 250 45 95 21 187 -64 249 -41 29 -50 31 -140 33 -62 2 -116 -3
-151 -12z m150 -70 c33 -17 49 -50 49 -97 0 -116 -97 -212 -261 -258 -84 -23
-139 -26 -139 -7 1 44 37 152 70 209 46 76 104 131 164 152 54 19 81 19 117 1z"/>
<path d="M17110 5796 c0 -8 -3 -21 -6 -29 -4 -11 6 -19 33 -27 52 -17 63 -28
63 -61 0 -15 -65 -254 -144 -531 -80 -276 -144 -504 -142 -505 5 -5 286 -36
290 -32 3 2 7 16 11 31 6 25 4 28 -37 38 -54 15 -68 26 -68 55 0 20 78 305 86
314 2 2 26 -17 54 -42 60 -54 120 -72 224 -65 277 18 512 374 427 647 -34 110
-100 171 -205 190 -102 19 -189 -11 -288 -99 -27 -23 -48 -40 -48 -38 0 1 11
39 25 83 14 44 25 81 25 83 0 1 -67 2 -150 2 -123 0 -150 -3 -150 -14z m560
-142 c88 -53 90 -224 4 -404 -80 -168 -191 -248 -303 -220 -83 21 -113 67
-113 174 1 173 113 385 235 445 52 26 137 28 177 5z"/>
<path d="M13284 5779 c-26 -6 -65 -30 -108 -65 l-67 -55 -57 6 c-65 8 -163 -7
-225 -34 -106 -46 -187 -157 -187 -257 0 -98 39 -167 127 -224 l42 -27 -32
-15 c-93 -46 -147 -127 -133 -200 8 -43 56 -93 103 -109 l37 -12 -40 -19
c-149 -75 -178 -214 -62 -301 102 -77 338 -76 502 2 81 39 154 104 190 171 48
88 34 215 -30 271 -66 58 -145 68 -321 40 -166 -26 -198 -26 -223 -1 -26 26
-25 42 6 80 37 44 97 71 178 81 100 13 163 35 223 80 140 105 150 278 22 393
-45 40 -47 45 -33 64 16 23 75 62 94 62 9 0 11 -11 7 -37 -16 -96 93 -142 143
-60 25 40 25 73 0 114 -31 51 -83 68 -156 52z m-221 -218 c39 -26 55 -51 68
-110 31 -145 -71 -278 -199 -257 -50 8 -81 32 -103 79 -48 106 -5 254 86 293
44 19 115 17 148 -5z m184 -783 c37 -38 37 -103 -1 -153 -79 -103 -295 -157
-405 -101 -96 50 -84 173 22 228 54 28 214 57 295 54 52 -2 67 -6 89 -28z"/>
<path d="M11154 5706 c-104 -45 -76 -196 36 -196 113 0 140 152 34 196 -39 16
-32 16 -70 0z"/>
<path d="M18425 5676 c-73 -17 -148 -52 -212 -99 -125 -92 -195 -232 -197
-392 -1 -93 19 -156 71 -225 106 -139 328 -172 503 -73 53 30 150 103 150 112
0 3 -9 17 -18 29 l-18 24 -64 -41 c-85 -55 -155 -75 -241 -69 -120 9 -187 73
-196 189 l-5 64 123 1 c246 2 420 69 479 185 59 115 18 227 -102 279 -66 28
-188 35 -273 16z m156 -66 c11 0 31 -11 44 -25 29 -28 34 -94 11 -148 -20 -50
-95 -109 -169 -135 -59 -21 -257 -44 -257 -30 0 3 9 30 19 60 34 98 106 194
181 241 39 24 118 48 138 41 8 -2 22 -4 33 -4z"/>
<path d="M21063 5587 c-11 -24 -9 -27 35 -49 39 -19 48 -28 50 -54 2 -21 -51
-171 -169 -475 -198 -513 -201 -526 -137 -585 33 -30 44 -34 90 -34 53 0 137
34 198 80 23 17 23 18 4 42 l-19 26 -47 -25 c-55 -29 -92 -28 -96 3 -2 12 87
255 197 539 111 284 201 520 201 524 0 5 -46 11 -102 15 -57 4 -123 9 -148 12
-42 6 -47 4 -57 -19z"/>
<path d="M19285 5550 c-203 -30 -370 -200 -405 -413 -39 -227 88 -406 317
-447 184 -33 392 87 487 281 152 312 -66 628 -399 579z m169 -94 c63 -26 106
-108 106 -201 0 -172 -122 -406 -243 -464 -103 -50 -221 -5 -256 98 -16 48
-14 163 5 234 35 136 136 282 229 330 38 20 115 21 159 3z"/>
<path d="M12062 5514 c-91 -45 -159 -137 -240 -324 -8 -19 -11 9 -11 128 -1
142 -2 153 -19 148 -119 -38 -267 -96 -266 -105 1 -6 2 -19 3 -29 1 -15 7 -18
31 -14 54 8 78 -5 89 -46 5 -20 17 -183 26 -362 10 -179 19 -327 21 -329 1 -2
36 4 77 13 l75 17 -2 217 c-1 234 3 259 62 377 61 124 166 216 227 201 35 -9
45 -54 46 -200 1 -247 14 -421 32 -450 27 -40 63 -59 113 -58 67 1 125 48 195
159 l20 32 -29 15 c-30 15 -30 15 -56 -25 -31 -47 -70 -69 -89 -50 -9 8 -14
89 -18 284 -5 246 -7 276 -26 317 -24 53 -55 87 -90 101 -46 17 -116 10 -171
-17z"/>
<path d="M19950 5421 c0 -5 -3 -16 -6 -25 -4 -10 7 -21 35 -35 59 -30 64 -47
41 -120 -19 -56 -329 -906 -344 -942 -6 -14 14 -21 138 -45 80 -15 147 -26
150 -23 2 2 7 15 11 29 5 23 1 28 -44 47 -46 19 -51 25 -51 52 0 23 92 293
105 309 2 2 25 -19 53 -47 154 -154 445 -83 598 145 126 188 133 413 18 528
-106 106 -288 100 -419 -15 -20 -18 -37 -30 -39 -28 -3 2 6 30 19 62 40 98 40
95 3 101 -74 11 -268 16 -268 7z m538 -177 c23 -9 38 -26 52 -56 36 -80 24
-167 -45 -313 -71 -154 -176 -245 -279 -245 -91 0 -147 45 -161 130 -9 51 18
165 58 252 62 134 146 218 245 244 49 13 75 10 130 -12z"/>
<path d="M11152 5317 c-126 -48 -133 -52 -130 -76 3 -24 7 -26 51 -26 82 -1
74 31 111 -457 15 -199 26 -230 88 -261 54 -27 101 -15 160 41 26 24 61 66 78
93 l29 48 -22 16 c-30 21 -32 20 -68 -30 -25 -34 -39 -45 -60 -45 -19 0 -28 6
-33 23 -3 12 -15 171 -27 352 -21 341 -24 376 -37 374 -4 0 -67 -24 -140 -52z"/>
<path d="M10784 5231 c-49 -30 -79 -78 -117 -186 l-35 -100 -7 113 c-4 62 -12
115 -17 118 -5 3 -67 -18 -139 -48 -120 -49 -129 -55 -129 -80 0 -26 2 -27 57
-30 56 -3 58 -4 69 -38 7 -19 27 -183 45 -363 l33 -328 26 6 c95 22 130 37
130 53 0 9 -7 76 -15 147 -19 165 -19 285 -1 372 17 81 49 160 78 190 l21 22
38 -19 c48 -25 70 -25 101 0 50 39 41 123 -17 168 -34 27 -80 28 -121 3z"/>
<path d="M21660 5064 c-127 -34 -252 -127 -317 -236 -46 -75 -77 -205 -69
-282 17 -160 138 -281 304 -304 115 -16 216 10 350 91 57 34 60 41 36 75 l-16
23 -53 -30 c-165 -93 -341 -75 -410 43 -20 34 -25 56 -25 109 l0 67 58 -7 c89
-12 281 -8 342 6 111 27 200 87 231 156 57 126 -17 256 -168 291 -74 18 -193
17 -263 -2z m213 -65 c52 -14 71 -46 65 -110 -8 -83 -79 -154 -187 -186 -56
-17 -253 -24 -268 -10 -3 4 11 41 32 82 56 110 161 201 260 226 43 10 56 10
98 -2z"/>
<path d="M9925 5021 c-138 -50 -236 -131 -303 -251 -105 -190 -75 -444 69
-574 69 -63 120 -81 224 -81 77 0 99 5 148 28 77 35 127 76 181 145 37 49 96
151 96 166 0 3 -13 12 -29 20 -32 17 -36 15 -66 -43 -26 -52 -104 -130 -156
-156 -25 -13 -69 -27 -97 -31 -73 -9 -152 29 -193 94 -16 25 -29 52 -29 59 0
7 43 33 96 58 166 77 294 184 341 283 51 109 14 240 -80 283 -53 24 -136 24
-202 0z m102 -108 c59 -73 34 -198 -58 -292 -63 -63 -208 -145 -226 -127 -13
13 -15 128 -3 189 14 72 50 154 88 199 59 70 156 85 199 31z"/>
<path d="M24072 4854 c-65 -32 -155 -130 -202 -218 -19 -36 -42 -66 -50 -66
-8 0 -44 9 -80 20 -36 11 -68 20 -72 20 -14 0 -39 -73 -28 -80 5 -3 41 -14 80
-24 38 -10 70 -23 70 -28 0 -8 -153 -341 -310 -675 -75 -159 -126 -225 -202
-259 -32 -15 -38 -22 -36 -43 3 -25 6 -26 63 -25 109 3 190 54 264 167 22 34
117 226 211 427 94 200 172 365 173 366 2 2 47 -10 100 -25 l98 -29 19 39 20
38 -68 20 c-37 11 -79 23 -95 27 -15 3 -30 10 -33 15 -8 14 100 230 128 256
13 13 38 25 54 29 46 9 63 -14 61 -82 -1 -48 2 -59 22 -75 76 -61 183 31 137
118 -54 105 -207 146 -324 87z"/>
<path d="M9163 4773 c-28 -5 -69 -47 -77 -78 -13 -53 49 -115 114 -115 11 0
30 -10 41 -21 20 -20 21 -29 16 -118 -6 -102 -28 -194 -79 -323 -24 -65 -33
-78 -43 -67 -6 8 -85 133 -175 279 -90 146 -169 271 -176 279 -10 11 -22 8
-73 -23 -34 -21 -61 -40 -61 -43 0 -4 13 -27 30 -53 46 -71 61 -126 62 -215 0
-87 -33 -242 -74 -352 l-24 -62 -174 294 -174 294 -30 -18 c-17 -10 -63 -37
-102 -60 -66 -38 -70 -43 -66 -71 4 -27 8 -30 43 -30 28 0 47 -8 71 -29 19
-16 110 -157 208 -320 96 -160 178 -291 182 -291 4 0 18 4 31 9 19 7 32 29 57
93 59 156 109 315 127 408 l18 92 130 -211 c71 -116 134 -211 140 -211 41 0
72 59 161 304 133 365 130 583 -10 647 -41 19 -52 20 -93 12z"/>
<path d="M22931 4761 c-174 -65 -304 -226 -332 -411 -10 -63 -9 -85 5 -138 39
-152 158 -256 325 -283 212 -35 450 127 520 355 27 88 27 168 -1 253 -30 90
-114 179 -203 213 -86 33 -239 38 -314 11z m241 -71 c48 -14 97 -55 114 -97
47 -112 -20 -337 -142 -472 -48 -53 -148 -111 -193 -111 -83 0 -160 54 -180
125 -37 133 33 329 164 461 91 92 153 117 237 94z"/>
<path d="M24652 4285 c-10 -22 -9 -26 23 -41 48 -22 58 -38 51 -76 -4 -18
-109 -242 -235 -498 -140 -287 -223 -467 -217 -471 26 -15 259 -80 270 -76 7
3 16 15 19 26 4 17 -2 25 -33 41 -73 37 -71 60 27 253 l59 119 27 -40 c56 -86
139 -125 262 -124 224 0 432 185 491 438 46 200 -68 364 -256 364 -82 0 -121
-11 -194 -55 -32 -19 -60 -35 -62 -35 -2 0 12 31 31 70 19 38 35 74 35 78 0 8
-239 52 -277 52 -5 0 -15 -11 -21 -25z m507 -203 c115 -62 86 -259 -66 -454
-93 -118 -214 -166 -316 -123 -104 43 -109 167 -15 348 100 191 277 293 397
229z"/>
<path d="M7648 4181 c-158 -52 -264 -169 -303 -333 -19 -80 -19 -146 0 -226
76 -321 375 -436 631 -242 88 66 144 173 165 315 13 88 -5 196 -46 282 -38 76
-116 157 -182 189 -76 35 -185 42 -265 15z m106 -82 c80 -22 164 -141 201
-284 17 -68 20 -222 4 -280 -32 -120 -148 -185 -253 -141 -180 75 -269 492
-138 648 27 32 93 67 127 68 11 0 37 -5 59 -11z"/>
<path d="M25619 3998 c-8 -16 -9 -23 -1 -26 6 -2 26 -13 44 -26 26 -18 33 -29
32 -53 -1 -17 -46 -112 -106 -224 -57 -107 -114 -217 -126 -246 -39 -92 -25
-167 40 -217 101 -76 240 -56 409 57 l94 63 -37 -76 c-44 -88 -49 -143 -17
-184 33 -42 75 -59 133 -53 53 6 186 59 186 75 0 6 -8 19 -17 31 l-18 22 -43
-21 c-53 -26 -86 -23 -90 7 -4 24 13 60 194 405 63 119 115 223 116 230 3 11
-100 56 -132 57 -10 1 -41 -48 -85 -131 -96 -182 -150 -248 -270 -331 -116
-80 -238 -110 -293 -71 -42 29 -29 65 136 375 66 123 129 243 140 265 l21 41
-132 27 c-160 32 -163 32 -178 4z"/>
<path d="M6776 3767 c-75 -40 -129 -107 -156 -194 -11 -36 -20 -75 -21 -87 -1
-11 -13 17 -28 64 -18 56 -32 84 -41 82 -21 -5 -230 -154 -230 -164 0 -5 5
-18 10 -29 9 -15 15 -17 30 -9 10 5 35 10 54 10 29 0 38 -5 50 -27 8 -16 85
-246 171 -513 86 -267 161 -489 165 -494 4 -4 65 22 134 59 113 60 126 69 120
88 -10 35 -17 37 -62 22 -51 -18 -77 -8 -93 33 -24 60 -91 284 -87 288 3 2 19
-1 37 -7 75 -26 187 11 274 91 112 103 163 293 126 472 -16 77 -82 206 -131
257 -93 96 -213 118 -322 58z m160 -142 c100 -77 169 -324 135 -488 -23 -110
-117 -189 -205 -173 -106 20 -206 224 -206 420 0 208 149 338 276 241z"/>
<path d="M26601 3671 c-16 -29 -14 -39 12 -47 34 -10 57 -35 57 -61 0 -30 -17
-64 -190 -375 -77 -138 -140 -254 -140 -257 0 -4 33 -19 74 -33 l74 -26 73
136 c86 159 165 270 235 330 47 40 151 102 172 102 6 0 22 -20 36 -44 14 -25
35 -48 46 -51 32 -10 78 4 100 32 63 80 9 186 -93 186 -56 0 -106 -24 -202
-97 -55 -42 -75 -53 -64 -36 37 59 111 191 108 194 -2 2 -60 15 -129 30 -69
15 -133 30 -142 32 -10 3 -21 -3 -27 -15z"/>
<path d="M27260 3431 c-14 -27 -14 -27 25 -51 46 -28 52 -57 24 -111 -12 -24
-132 -235 -266 -467 -135 -233 -241 -427 -237 -432 5 -4 65 -29 134 -55 l124
-47 19 23 c21 26 24 22 -48 72 -43 31 -42 34 100 279 l38 66 20 -39 c61 -123
239 -181 405 -130 178 54 328 217 378 411 68 267 -179 447 -435 317 -40 -20
-69 -31 -65 -24 4 6 25 40 47 75 22 35 38 64 36 66 -5 5 -265 66 -278 66 -6 0
-15 -9 -21 -19z m480 -236 c109 -56 96 -205 -35 -391 -86 -120 -184 -184 -285
-184 -107 0 -165 56 -163 158 1 43 11 75 46 146 107 220 300 340 437 271z"/>
<path d="M5992 3362 c-82 -44 -159 -150 -197 -272 -9 -30 -19 -62 -21 -70 -3
-8 -16 11 -29 45 -52 127 -157 165 -270 95 -78 -48 -156 -185 -186 -325 l-13
-60 -25 143 c-13 78 -29 142 -34 142 -6 0 -66 -30 -134 -67 -116 -64 -124 -69
-118 -93 8 -32 4 -30 50 -20 45 10 79 -5 90 -40 4 -11 37 -165 75 -341 37
-176 70 -322 72 -324 4 -4 135 42 146 51 2 1 -13 80 -32 176 -40 195 -43 245
-20 355 21 104 62 190 116 246 52 55 97 64 123 24 8 -13 44 -166 80 -341 36
-175 67 -322 70 -326 7 -12 139 46 143 62 1 8 -11 78 -28 156 -34 163 -39 292
-15 387 43 165 151 298 220 271 27 -10 44 -68 80 -283 20 -114 43 -233 51
-263 26 -92 86 -136 163 -119 47 10 97 62 138 143 33 66 34 70 17 83 -30 22
-43 15 -68 -36 -26 -50 -45 -65 -71 -55 -19 8 -27 39 -69 284 -41 238 -48 266
-79 311 -51 76 -148 102 -225 61z"/>
<path d="M28328 2995 c-173 -56 -321 -223 -351 -399 -34 -203 108 -386 331
-428 130 -24 293 34 406 145 103 101 151 218 144 351 -3 68 -10 91 -38 144
-39 73 -102 130 -187 169 -48 22 -75 27 -158 30 -69 2 -115 -2 -147 -12z m282
-97 c112 -57 126 -180 39 -356 -78 -159 -226 -282 -339 -282 -106 0 -180 77
-180 187 0 173 163 400 329 459 54 19 101 17 151 -8z"/>
<path d="M4660 2865 c-174 -35 -342 -204 -385 -386 -48 -204 39 -429 197 -510
178 -91 411 6 520 216 62 118 62 122 27 141 -17 8 -32 14 -33 12 -2 -2 -18
-31 -36 -65 -47 -89 -113 -155 -183 -182 -90 -33 -151 -25 -220 29 -24 19 -67
87 -67 105 0 3 16 13 36 21 73 31 211 124 272 185 113 114 152 241 102 338
-17 35 -71 90 -88 91 -4 1 -25 4 -47 9 -24 4 -63 3 -95 -4z m14 -99 c42 -17
66 -68 66 -138 0 -74 -36 -143 -110 -211 -66 -62 -169 -122 -183 -108 -5 5
-11 47 -14 94 -11 172 58 325 162 362 22 8 41 14 43 15 1 0 17 -6 36 -14z"/>
<path d="M29230 2661 c-95 -22 -160 -75 -186 -153 -30 -91 -4 -151 126 -292
66 -72 109 -141 110 -174 0 -8 -8 -30 -17 -49 -17 -37 -76 -72 -121 -73 -42 0
-136 40 -169 72 -40 38 -41 63 -8 108 34 46 32 84 -4 121 -61 61 -152 19 -167
-79 -17 -108 109 -240 275 -289 202 -59 390 41 391 208 0 67 -46 150 -129 234
-84 83 -127 158 -117 199 21 85 140 112 226 53 53 -36 57 -49 31 -104 -26 -56
-20 -87 25 -122 36 -28 84 -27 117 3 69 64 37 182 -71 261 -81 60 -227 95
-312 76z"/>
<path d="M29963 2306 c-212 -54 -369 -236 -381 -441 -3 -65 0 -91 18 -137 41
-110 159 -198 297 -221 76 -13 166 0 272 39 74 27 85 42 58 77 -12 17 -15 17
-57 1 -25 -9 -86 -18 -136 -21 -83 -5 -97 -3 -145 19 -82 39 -118 81 -132 156
-7 34 9 128 22 136 4 3 48 -8 97 -24 234 -75 447 -55 538 51 109 128 44 283
-146 348 -79 28 -231 36 -305 17z m286 -90 c41 -19 64 -59 57 -99 -13 -72 -78
-136 -160 -158 -60 -16 -171 -14 -251 6 -38 10 -74 21 -78 25 -13 11 77 125
125 158 124 84 225 107 307 68z"/>
<path d="M4014 1917 c-31 -29 -36 -39 -36 -76 1 -79 82 -132 148 -98 48 25 67
53 67 99 0 35 -6 47 -36 75 -50 45 -94 45 -143 0z"/>
<path d="M3574 1772 c-92 -77 -23 -222 90 -191 92 26 112 139 34 193 -30 21
-98 20 -124 -2z"/>
<path d="M3164 1626 c-83 -37 -87 -151 -7 -195 53 -28 126 0 149 56 19 44 11
83 -24 116 -34 33 -77 41 -118 23z"/>
</g>
</svg>
